<?xml version="1.0" encoding="utf-8"?>
<!-- Generator: Adobe Illustrator 25.2.0, SVG Export Plug-In . SVG Version: 6.00 Build 0)  -->
<svg version="1.1" id="Layer_1" xmlns="http://www.w3.org/2000/svg" xmlns:xlink="http://www.w3.org/1999/xlink" x="0px" y="0px"
	 viewBox="0 0 115.8 146.5" style="enable-background:new 0 0 115.8 146.5;" xml:space="preserve">
<style type="text/css">
	.st0{fill:#FF007C;}
	.st1{fill:#7A7AFE;}
	.st2{fill:#00F9CF;}
	.st3{fill:#fff;}
</style>
<g>
	<g>
		<path class="st0" d="M110.8,0H5.1C0.8,0-1.3,5.2,1.7,8.3l16.9,16.9h63.2c4.8,0,8.7,3.9,8.7,8.7v63.2l16.9,16.9
			c3,3,8.3,0.9,8.3-3.4V4.8C115.7,2.2,113.5,0,110.8,0z"/>
		<path class="st1" d="M81.8,29H22.5h-17c-4.3,0-6.5,5.2-3.4,8.3L20,55.1c2.8-0.8,5.7-1.2,8.7-1.2C46.5,53.9,61,68.5,61,86.3
			c0,3-0.4,5.9-1.2,8.7l18.5,18.5c1,1,2.2,1.4,3.4,1.4c2.5,0,4.9-1.9,4.9-4.8v-17V33.8C86.7,31.2,84.5,29,81.8,29z"/>
		<circle class="st2" cx="28.6" cy="86.2" r="28.5"/>
	</g>
	<g>
		<path class="st3" d="M5.4,146.5c-2.1,0-3.9-0.9-5.2-2.8c-0.3-0.4-0.2-0.8,0.2-1.2l0.7-0.6c0.4-0.4,0.8-0.3,1.2,0.1
			c0.9,0.9,1.9,1.3,3,1.3c0.9,0,1.7-0.3,2.3-0.9c0.6-0.6,0.9-1.3,0.9-2.2s-0.3-1.6-0.9-2.2c-0.6-0.6-1.4-0.9-2.3-0.9
			c-0.7,0-1.3,0.2-1.9,0.6c-0.4,0.3-0.7,0.4-1.1,0.4l-1.2-0.2c-0.6-0.1-0.8-0.4-0.7-0.9l1-8.6c0.1-0.5,0.4-0.8,0.9-0.8h8.3
			c0.6,0,0.8,0.3,0.8,0.8v1.5c0,0.6-0.3,0.8-0.8,0.8H4.8l-0.4,3.8c0.5-0.3,1.1-0.4,1.9-0.4c1.1,0,2,0.2,2.9,0.7
			c0.9,0.5,1.6,1.2,2.2,2.1c0.5,0.9,0.8,2,0.8,3.1c0,1.8-0.6,3.3-1.8,4.5C9.1,145.9,7.4,146.5,5.4,146.5z"/>
		<path class="st3" d="M31.9,136.3c0.6,0,0.8,0.2,0.8,0.6c0,3-0.8,5.3-2.4,7c-1.6,1.7-3.8,2.6-6.6,2.6c-1.3,0-2.5-0.2-3.6-0.7
			c-1.2-0.5-2.2-1.2-3-2c-0.8-0.9-1.5-1.9-2-3.1c-0.5-1.2-0.7-2.4-0.7-3.8c0-1.3,0.2-2.6,0.7-3.8c0.5-1.2,1.2-2.2,2-3.1
			c0.8-0.8,1.8-1.5,3-2c1.2-0.5,2.4-0.7,3.7-0.7c2.1,0,3.8,0.5,5.3,1.4c1.5,0.9,2.5,2.3,3.2,4c0.1,0.3,0.1,0.5,0,0.7
			c-0.1,0.2-0.4,0.3-0.7,0.3h-2.4c-0.4,0-0.8-0.2-1-0.6c-0.9-1.6-2.4-2.5-4.4-2.5c-1.6,0-2.9,0.6-4,1.8c-1.1,1.2-1.6,2.7-1.6,4.5
			c0,1.8,0.5,3.3,1.6,4.5c1.1,1.2,2.4,1.8,4,1.8c1.2,0,2.3-0.4,3.2-1.1c0.9-0.7,1.5-1.6,1.7-2.8h-4.5c-0.6,0-0.8-0.3-0.8-0.8v-1.3
			c0-0.6,0.3-0.8,0.8-0.8H31.9z"/>
		<path class="st3" d="M52.4,140.9c0.4,0.3,0.5,0.7,0.2,1.2c-0.9,1.5-2.1,2.6-3.3,3.3c-1.3,0.7-2.8,1.1-4.6,1.1
			c-1.8,0-3.4-0.4-4.8-1.3c-1.4-0.8-2.6-2-3.4-3.5c-0.8-1.5-1.2-3.1-1.2-4.9c0-1.8,0.4-3.4,1.2-4.9c0.8-1.5,1.9-2.6,3.4-3.5
			s3-1.3,4.8-1.3c2,0,3.8,0.5,5.2,1.5c1.4,1,2.5,2.4,3.1,4.3c0.1,0.3,0.1,0.5-0.1,0.7c-0.1,0.2-0.4,0.3-0.7,0.3h-2.2
			c-0.5,0-0.8-0.2-1-0.7c-0.4-0.9-1-1.6-1.8-2.1c-0.8-0.5-1.7-0.7-2.6-0.7c-1.6,0-2.9,0.6-4,1.8c-1.1,1.2-1.6,2.7-1.6,4.5
			c0,1.8,0.6,3.3,1.7,4.5c1.1,1.2,2.5,1.8,4.2,1.8c1.2,0,2.2-0.2,3.1-0.7c0.9-0.4,1.7-1.1,2.4-2c0.4-0.5,0.7-0.5,1.2-0.2L52.4,140.9
			z"/>
		<path class="st3" d="M59.8,130.9h-3.9c-0.6,0-0.8-0.3-0.8-0.8v-1.5c0-0.6,0.3-0.8,0.8-0.8h11.6c0.6,0,0.8,0.3,0.8,0.8v1.5
			c0,0.6-0.3,0.8-0.8,0.8h-3.9v14.4c0,0.6-0.3,0.8-0.8,0.8h-2.1c-0.6,0-0.8-0.3-0.8-0.8V130.9z"/>
		<path class="st3" d="M69.8,145.8c-0.4-0.4-0.6-0.9-0.6-1.6c0-0.6,0.2-1.1,0.6-1.6c0.4-0.4,1-0.6,1.6-0.6c0.6,0,1.2,0.2,1.6,0.6
			c0.4,0.4,0.6,0.9,0.6,1.6c0,0.6-0.2,1.1-0.6,1.6c-0.4,0.4-1,0.6-1.6,0.6C70.8,146.5,70.2,146.2,69.8,145.8z"/>
		<path class="st3" d="M93,140.9c0.4,0.3,0.5,0.7,0.2,1.2c-0.9,1.5-2.1,2.6-3.3,3.3c-1.3,0.7-2.8,1.1-4.6,1.1
			c-1.8,0-3.4-0.4-4.8-1.3c-1.4-0.8-2.6-2-3.4-3.5c-0.8-1.5-1.2-3.1-1.2-4.9c0-1.8,0.4-3.4,1.2-4.9c0.8-1.5,1.9-2.6,3.4-3.5
			c1.4-0.8,3-1.3,4.8-1.3c2,0,3.8,0.5,5.2,1.5c1.4,1,2.5,2.4,3.1,4.3c0.1,0.3,0.1,0.5-0.1,0.7c-0.1,0.2-0.4,0.3-0.7,0.3h-2.2
			c-0.5,0-0.8-0.2-1-0.7c-0.4-0.9-1-1.6-1.8-2.1c-0.8-0.5-1.7-0.7-2.6-0.7c-1.6,0-2.9,0.6-4,1.8c-1.1,1.2-1.6,2.7-1.6,4.5
			c0,1.8,0.6,3.3,1.7,4.5c1.1,1.2,2.5,1.8,4.2,1.8c1.2,0,2.2-0.2,3.1-0.7c0.9-0.4,1.7-1.1,2.4-2c0.4-0.5,0.7-0.5,1.2-0.2L93,140.9z"
			/>
		<path class="st3" d="M97.2,141.7c-0.9-1.5-1.3-3.1-1.3-4.9c0-1.8,0.4-3.4,1.3-4.9c0.9-1.5,2.1-2.6,3.6-3.5s3.2-1.3,5-1.3
			c1.8,0,3.5,0.4,5,1.3s2.7,2,3.6,3.5c0.9,1.5,1.3,3.1,1.3,4.9c0,1.8-0.4,3.4-1.3,4.9c-0.9,1.5-2.1,2.6-3.6,3.5
			c-1.5,0.8-3.2,1.3-5,1.3c-1.8,0-3.5-0.4-5-1.3C99.3,144.4,98.1,143.2,97.2,141.7z M101.5,132.4c-1.2,1.2-1.8,2.7-1.8,4.5
			c0,1.8,0.6,3.3,1.8,4.5c1.2,1.2,2.6,1.8,4.4,1.8c1.7,0,3.2-0.6,4.4-1.8c1.2-1.2,1.8-2.7,1.8-4.5c0-1.8-0.6-3.3-1.8-4.5
			c-1.2-1.2-2.6-1.8-4.4-1.8C104.1,130.6,102.6,131.2,101.5,132.4z"/>
	</g>
</g>
</svg>
