<svg width="32" height="33" viewBox="0 0 32 33" fill="none" xmlns="http://www.w3.org/2000/svg">
<g clip-path="url(#clip0_1507_53111)">
<path d="M40 0.139893H-8V32.1399H40V0.139893Z" fill="#007A3D"/>
<path d="M25.7794 14.7386C25.5259 15.0108 25.1809 15.2807 24.7444 15.5483C24.3079 15.8158 23.7657 16.0599 23.118 16.2805C22.4702 16.5011 21.7169 16.6865 20.8579 16.8367C19.999 16.9869 19.0203 17.0808 17.922 17.1183C17.8187 17.4094 17.7131 17.7215 17.6051 18.0547C17.4972 18.388 17.3915 18.7518 17.2883 19.1461H17.2179C17.1709 19.0991 17.131 19.0404 17.0982 18.97C17.0653 18.8996 17.0348 18.7987 17.0067 18.6673C17.0536 18.4044 17.1052 18.1463 17.1616 17.8928C17.2179 17.6393 17.2789 17.3812 17.3446 17.1183C16.8658 17.1183 16.4152 17.0573 15.9928 16.9353C15.9646 18.7565 15.5281 20.4275 14.6832 21.9483C13.7632 23.6099 11.8435 24.4407 8.92393 24.4407C7.75047 24.4407 6.79294 24.098 6.05132 23.4127C5.30031 22.718 4.9248 21.8497 4.9248 20.8077C4.9248 19.7093 5.44112 18.3622 6.47376 16.7663L6.74131 16.8649C6.04662 18.151 5.69928 19.1883 5.69928 19.9769C5.69928 20.3899 5.8002 20.7584 6.00203 21.0823C6.20387 21.4061 6.49019 21.6831 6.861 21.9131C7.23181 22.1431 7.68711 22.3191 8.2269 22.4411C8.76668 22.5631 9.37453 22.6242 10.0504 22.6242C11.0831 22.6242 12.0406 22.4458 12.9231 22.0891C13.8055 21.7417 14.4063 21.2958 14.7255 20.7513C15.0165 20.2256 15.162 19.4512 15.162 18.4279C15.162 17.874 15.0752 17.3225 14.9015 16.7733C14.7278 16.2242 14.4908 15.7384 14.1904 15.3159L14.9649 13.6543C15.1244 13.8796 15.2746 14.126 15.4155 14.3936C15.5563 14.6611 15.6642 14.8888 15.7393 15.0765C16.0116 15.1986 16.2838 15.2831 16.5561 15.33C16.8283 15.3769 17.1146 15.4004 17.415 15.4004C17.5183 15.4004 17.6262 15.4004 17.7389 15.4004C17.8515 15.4004 17.9689 15.391 18.0909 15.3722C18.6072 14.518 19.1635 13.7388 19.7596 13.0347C20.3557 12.3307 20.9776 11.7158 21.6254 11.1901C22.1792 10.7395 22.7143 10.3874 23.2307 10.1339C23.747 9.88049 24.1694 9.75376 24.498 9.75375C24.8359 9.75376 25.1598 9.81712 25.4696 9.94385C25.7794 10.0706 26.054 10.2255 26.2934 10.4085C26.5327 10.5916 26.7228 10.784 26.8637 10.9859C27.0045 11.1877 27.0749 11.3684 27.0749 11.528C27.0749 11.9129 27.0373 12.2649 26.9622 12.5841C26.8871 12.9033 26.7885 13.192 26.6665 13.4501C26.5445 13.7083 26.406 13.943 26.2511 14.1542C26.0962 14.3654 25.939 14.5602 25.7794 14.7386ZM23.9911 11.6266C23.7282 11.6266 23.3973 11.7111 22.9983 11.88C22.5993 12.049 22.1675 12.2908 21.7028 12.6052C21.2381 12.9197 20.7617 13.3093 20.2736 13.774C19.7854 14.2387 19.3207 14.7667 18.8795 15.3582C19.0391 15.3582 19.1916 15.3535 19.3371 15.3441C19.4826 15.3347 19.654 15.3206 19.8511 15.3018C20.527 15.2549 21.1912 15.154 21.8436 14.9991C22.4961 14.8442 23.1978 14.6212 23.9488 14.3302C24.5402 14.1049 25.019 13.8679 25.3851 13.6191C25.7512 13.3703 25.9859 13.1615 26.0892 12.9925C25.9765 12.8329 25.8404 12.671 25.6808 12.5067C25.5212 12.3424 25.3475 12.1945 25.1598 12.0631C24.972 11.9317 24.7772 11.8261 24.5754 11.7463C24.3736 11.6665 24.1788 11.6266 23.9911 11.6266ZM21.4705 6.93746L20.4707 8.41601L19.133 7.2895L20.1187 5.83911L21.4705 6.93746Z" fill="white"/>
</g>
<defs>
<clipPath id="clip0_1507_53111">
<rect y="0.139893" width="32" height="32" rx="16" fill="white"/>
</clipPath>
</defs>
</svg>
