<svg width="32" height="33" viewBox="0 0 32 33" fill="none" xmlns="http://www.w3.org/2000/svg">
<g clip-path="url(#clip0_1507_53158)">
<path d="M-10.4199 0.678955V32.5599H42.7149V0.678955H-10.4199Z" fill="#012169"/>
<path d="M-10.4199 0.678955L42.7149 32.5599L-10.4199 0.678955ZM42.7149 0.678955L-10.4199 32.5599L42.7149 0.678955Z" fill="black"/>
<path d="M-10.4199 0.678955L42.7149 32.5599M42.7149 0.678955L-10.4199 32.5599" stroke="white" stroke-width="6.37618"/>
<mask id="mask0_1507_53158" style="mask-type:luminance" maskUnits="userSpaceOnUse" x="-11" y="0" width="54" height="33">
<path d="M16.1436 16.6194H42.711V32.5599L16.1436 16.6194ZM16.1436 16.6194V32.5599H-10.4238L16.1436 16.6194ZM16.1436 16.6194H-10.4238V0.678955L16.1436 16.6194ZM16.1436 16.6194V0.678955H42.711L16.1436 16.6194Z" fill="white"/>
</mask>
<g mask="url(#mask0_1507_53158)">
<path d="M-10.4238 0.678955L42.711 32.5599L-10.4238 0.678955ZM42.711 0.678955L-10.4238 32.5599L42.711 0.678955Z" fill="black"/>
<path d="M-10.4238 0.678955L42.711 32.5599M42.711 0.678955L-10.4238 32.5599" stroke="#C8102E" stroke-width="4.25079"/>
</g>
<path d="M-11.4824 12.3688H11.8969V-0.383545H20.3985V12.3688H43.7778V20.8704H20.3985V33.6228H11.8969V20.8704H-11.4824V12.3688Z" fill="#C8102E" stroke="white" stroke-width="2.12539"/>
</g>
<defs>
<clipPath id="clip0_1507_53158">
<rect y="0.81958" width="31.8809" height="31.8809" rx="15.9405" fill="white"/>
</clipPath>
</defs>
</svg>
