<svg width="73" height="41" viewBox="0 0 73 41" fill="none" xmlns="http://www.w3.org/2000/svg">
<g clip-path="url(#clip0_2558_96213)">
<path d="M42.9128 0.54912C40.2236 8.13348 34.7832 12.5825 34.7832 12.5825C34.7832 12.5825 40.236 11.9628 43.1111 14.7388C45.1807 12.2974 50.4105 12.6692 50.4105 12.6692C50.4105 12.6692 47.9443 10.6616 46.7794 10.2279C37.0511 6.58439 48.2789 10.6864 47.4734 9.67019C46.5191 8.48048 43.9538 1.7884 45.6269 5.24597C46.3952 6.20021 48.8862 5.43187 50.4105 8.93901C51.3895 9.71976 50.1998 2.73024 47.2131 1.91232C45.8995 1.55293 44.6478 0.561513 43.8795 0.152552C43.1111 -0.256409 43.0492 0.127767 42.9128 0.524335V0.54912Z" fill="#996C42"/>
<path d="M59.6056 24.2686C59.7419 26.3382 61.2167 27.9493 63.7696 27.9493C66.3225 27.9493 66.7191 27.3296 67.3511 26.2763H72.7295C71.6762 29.3001 69.148 31.915 63.7076 31.915C58.2672 31.915 54.252 27.3173 54.252 22.9922C54.252 18.6671 57.4741 14.0322 63.6704 14.0322C69.8668 14.0322 72.9278 18.5928 72.9278 22.9922C72.9278 27.3916 72.9278 23.7481 72.8907 24.2686H59.5932H59.6056ZM67.4874 20.997C67.3883 19.7205 66.6943 17.812 63.6457 17.812C60.597 17.812 59.8039 19.3239 59.68 20.997H67.4874Z" fill="#996C42"/>
<path d="M43.0375 16.5359C41.4389 15.024 39.1338 14.0078 36.048 14.0078C29.6534 14.0078 26.2949 18.3081 26.2949 22.9306C26.2949 27.5531 29.517 31.8905 35.8497 31.8905C42.1824 31.8905 45.7391 28.1727 45.7639 22.9802C45.7639 22.9802 45.7639 22.9802 45.7639 22.9678C45.7639 20.3777 47.0776 18.1098 50.0023 18.1098C52.9269 18.1098 52.8402 18.8782 53.5094 20.0183C53.9679 18.3948 54.7983 16.9201 56.0127 15.7428C54.5008 14.7018 52.5304 14.045 50.0642 14.045C47.5981 14.045 44.661 15.024 43.0375 16.5359ZM36.0108 27.8505C33.2225 27.8505 31.7477 25.5826 31.7477 22.9306C31.7477 20.2785 33.0614 18.0726 35.9861 18.0726C38.9107 18.0726 40.2492 20.4644 40.2492 23.0297C40.2492 25.595 38.8983 27.8505 36.0108 27.8505Z" fill="#996C42"/>
<path d="M5.52359 24.2686C5.65991 26.3382 7.13465 27.9493 9.68755 27.9493C12.2405 27.9493 12.637 27.3296 13.2691 26.2763H18.6475C17.5941 29.3001 15.066 31.915 9.62559 31.915C4.18517 31.915 0.169922 27.3173 0.169922 22.9922C0.169922 18.6671 3.39204 14.0322 9.58841 14.0322C15.7848 14.0322 18.8458 18.5928 18.8458 22.9922C18.8458 27.3916 18.8458 23.7481 18.8086 24.2686H5.5112H5.52359ZM13.4054 20.997C13.3062 19.7205 12.6122 17.812 9.56362 17.812C6.51501 17.812 5.72187 19.3239 5.59795 20.997H13.4054Z" fill="#996C42"/>
<path d="M19.9004 31.4568V7.00586H25.2541V31.4568H19.9004Z" fill="#996C42"/>
<path d="M10.2467 35.2616H8.87109V34.4561H12.6013V35.2616H11.2257V38.9918H10.2467V35.2616Z" fill="#996C42"/>
<path d="M14.0499 34.196V35.9929C14.1986 35.7699 14.4712 35.5096 15.0289 35.5096C15.5866 35.5096 16.169 35.8814 16.169 36.8109V38.992H15.2396V36.9472C15.2396 36.501 15.0785 36.2656 14.6943 36.2656C14.3101 36.2656 14.0747 36.6498 14.0747 37.1826V38.9796H13.1328V34.1836H14.0747L14.0499 34.196Z" fill="#996C42"/>
<path d="M17.757 37.4922C17.757 37.9136 17.9677 38.3349 18.4386 38.3349C18.9095 38.3349 18.9467 38.1738 19.0334 37.9755H19.9753C19.8513 38.3969 19.4796 39.0785 18.4138 39.0785C17.348 39.0785 16.8027 38.2358 16.8027 37.3559C16.8027 36.476 17.348 35.5342 18.4386 35.5342C19.5291 35.5342 20.0001 36.3769 20.0001 37.232C20.0001 38.0871 20.0001 37.4179 20.0001 37.517H17.757V37.4922ZM19.0706 36.9098C19.0706 36.5132 18.9095 36.1786 18.451 36.1786C17.9924 36.1786 17.8189 36.4884 17.7818 36.9098H19.0706Z" fill="#996C42"/>
<path d="M22.293 34.4688H23.272V38.199H25.5275L25.4159 39.0045H22.293V34.4811V34.4688Z" fill="#996C42"/>
<path d="M26.0977 34.1963H27.0395V35.039H26.0977V34.1963ZM26.0977 35.5967H27.0395V38.9923H26.0977V35.5967Z" fill="#996C42"/>
<path d="M27.8815 34.1963H28.8234V35.9561C28.9597 35.733 29.2447 35.5223 29.79 35.5223C30.7195 35.5223 31.178 36.2907 31.178 37.2449C31.178 38.1991 30.6823 39.079 29.7033 39.079C28.7242 39.079 28.9721 38.9303 28.811 38.6825C28.811 38.794 28.7986 38.9179 28.7738 39.0047H27.8691C27.8691 38.6329 27.8691 38.2611 27.8691 37.8893V34.2087L27.8815 34.1963ZM30.2238 37.2449C30.2238 36.6748 30.0131 36.2659 29.505 36.2659C28.9969 36.2659 28.7738 36.6129 28.7738 37.3069C28.7738 38.0009 28.9473 38.3231 29.4926 38.3231C30.0379 38.3231 30.2238 37.8893 30.2238 37.2449Z" fill="#996C42"/>
<path d="M31.8223 36.5136C31.8223 36.179 31.8223 35.8815 31.8223 35.5965H32.7393C32.7393 35.6709 32.7641 36.0055 32.7641 36.1914C32.9128 35.8072 33.2722 35.5222 33.8547 35.5098V36.402C33.1731 36.3897 32.7641 36.5631 32.7641 37.505V38.9921H31.8223V36.5136Z" fill="#996C42"/>
<path d="M37.1137 38.1119C37.1137 38.4342 37.1385 38.9051 37.1632 38.9918H36.2586C36.2338 38.9299 36.209 38.744 36.209 38.6572C36.0851 38.8431 35.8496 39.0662 35.2548 39.0662C34.6599 39.0662 34.0898 38.5333 34.0898 38.0004C34.0898 37.2321 34.7095 36.8727 35.7133 36.8727H36.1966V36.662C36.1966 36.4265 36.1099 36.1787 35.6761 36.1787C35.2424 36.1787 35.1928 36.3522 35.1432 36.5876H34.251C34.3005 35.9804 34.6723 35.4971 35.7133 35.4971C36.618 35.4971 37.1137 35.8565 37.1137 36.662V38.0872V38.1119ZM36.1966 37.4427H35.8124C35.2424 37.4427 35.0317 37.6162 35.0317 37.9384C35.0317 38.2607 35.1804 38.397 35.515 38.397C36.1099 38.397 36.1842 37.9756 36.1842 37.5295V37.4427H36.1966Z" fill="#996C42"/>
<path d="M37.9707 36.5136C37.9707 36.179 37.9707 35.8815 37.9707 35.5965H38.8878C38.8878 35.6709 38.9126 36.0055 38.9126 36.1914C39.0613 35.8072 39.4207 35.5222 40.0031 35.5098V36.402C39.3215 36.3897 38.9126 36.5631 38.9126 37.505V38.9921H37.9707V36.5136Z" fill="#996C42"/>
<path d="M41.3658 35.5964C41.7128 36.7737 42.0226 37.8147 42.0722 38.1245C42.1466 37.7775 42.3448 37.0215 42.7538 35.5964H43.6957L42.5555 39.0911C42.2333 40.0702 41.9607 40.3552 41.1427 40.3552C40.3248 40.3552 40.8701 40.3552 40.6966 40.3304V39.5744C40.7586 39.5744 40.8577 39.5868 40.9445 39.5868C41.2915 39.5868 41.465 39.4629 41.5889 39.0911L40.3496 35.584H41.3534L41.3658 35.5964Z" fill="#996C42"/>
<path d="M46.5822 38.9921L45.4297 34.4688H46.4707C46.892 36.5507 47.0903 37.4678 47.1399 37.9635C47.3134 37.1332 47.7471 35.5593 48.0074 34.4688H48.8873C49.1227 35.3362 49.5813 37.096 49.73 37.9263C49.8787 36.9349 50.3248 35.1751 50.4859 34.4688H51.4402L50.2133 38.9921H49.1971C48.9616 37.9883 48.5651 36.5259 48.4039 35.7576C48.2428 36.5631 47.8339 38.0874 47.586 38.9921H46.5698H46.5822Z" fill="#996C42"/>
<path d="M51.8984 34.1963H52.8403V35.039H51.8984V34.1963ZM51.8984 35.5967H52.8403V38.9923H51.8984V35.5967Z" fill="#996C42"/>
<path d="M53.4727 38.2859L55.1581 36.3402H53.5594V35.5967H56.2238V36.3279L54.5756 38.2487H56.3478L56.2362 38.9923H53.485V38.2859H53.4727Z" fill="#996C42"/>
<path d="M59.7309 38.1119C59.7309 38.4342 59.7556 38.9051 59.7804 38.9918H58.8758C58.851 38.9299 58.8262 38.744 58.8262 38.6572C58.7023 38.8431 58.4668 39.0662 57.872 39.0662C57.2771 39.0662 56.707 38.5333 56.707 38.0004C56.707 37.2321 57.3267 36.8727 58.3305 36.8727H58.8138V36.662C58.8138 36.4265 58.727 36.1787 58.2933 36.1787C57.8596 36.1787 57.81 36.3522 57.7604 36.5876H56.8681C56.9177 35.9804 57.2895 35.4971 58.3305 35.4971C59.2352 35.4971 59.7309 35.8565 59.7309 36.662V38.0872V38.1119ZM58.8138 37.4427H58.4296C57.8596 37.4427 57.6489 37.6162 57.6489 37.9384C57.6489 38.2607 57.7976 38.397 58.1322 38.397C58.727 38.397 58.8014 37.9756 58.8014 37.5295V37.4427H58.8138Z" fill="#996C42"/>
<path d="M60.5859 36.5136C60.5859 36.179 60.5859 35.8815 60.5859 35.5965H61.503C61.503 35.6709 61.5278 36.0055 61.5278 36.1914C61.6765 35.8072 62.0359 35.5222 62.6184 35.5098V36.402C61.9368 36.3897 61.5278 36.5631 61.5278 37.505V38.9921H60.5859V36.5136Z" fill="#996C42"/>
<path d="M66.2249 34.196V38.0501C66.2249 38.36 66.2249 38.6698 66.2249 38.9796H65.3202C65.2954 38.8804 65.283 38.7069 65.283 38.6202C65.1219 38.8928 64.8245 39.0539 64.3164 39.0539C63.4613 39.0539 62.916 38.36 62.916 37.3066C62.916 36.2532 63.4985 35.4972 64.4651 35.4972C65.4317 35.4972 65.2211 35.6707 65.2954 35.8194V34.1836H66.2373L66.2249 34.196ZM63.8826 37.2942C63.8826 37.951 64.1429 38.3104 64.6014 38.3104C65.06 38.3104 65.3202 37.7651 65.3202 37.2818C65.3202 36.7985 65.2335 36.2656 64.6262 36.2656C64.019 36.2656 63.8826 36.6498 63.8826 37.2942Z" fill="#996C42"/>
</g>
<defs>
<clipPath id="clip0_2558_96213">
<rect width="73" height="41" fill="white"/>
</clipPath>
</defs>
</svg>
