<svg width="73" height="41" viewBox="0 0 73 41" fill="none" xmlns="http://www.w3.org/2000/svg">
<g clip-path="url(#clip0_2558_96063)">
<path d="M42.9128 0.54912C40.2236 8.13348 34.7832 12.5825 34.7832 12.5825C34.7832 12.5825 40.236 11.9628 43.1111 14.7388C45.1807 12.2974 50.4105 12.6692 50.4105 12.6692C50.4105 12.6692 47.9443 10.6616 46.7794 10.2279C37.0511 6.58439 48.2789 10.6864 47.4734 9.67019C46.5191 8.48048 43.9538 1.7884 45.6269 5.24597C46.3952 6.20021 48.8862 5.43187 50.4105 8.93901C51.3895 9.71976 50.1998 2.73024 47.2131 1.91232C45.8995 1.55293 44.6478 0.561513 43.8795 0.152552C43.1111 -0.256409 43.0492 0.127767 42.9128 0.524335V0.54912Z" fill="white"/>
<path d="M59.6056 24.2686C59.7419 26.3382 61.2167 27.9493 63.7696 27.9493C66.3225 27.9493 66.7191 27.3296 67.3511 26.2763H72.7295C71.6762 29.3001 69.148 31.915 63.7076 31.915C58.2672 31.915 54.252 27.3173 54.252 22.9922C54.252 18.6671 57.4741 14.0322 63.6704 14.0322C69.8668 14.0322 72.9278 18.5928 72.9278 22.9922C72.9278 27.3916 72.9278 23.7481 72.8907 24.2686H59.5932H59.6056ZM67.4874 20.997C67.3883 19.7205 66.6943 17.812 63.6457 17.812C60.597 17.812 59.8039 19.3239 59.68 20.997H67.4874Z" fill="white"/>
<path d="M43.0375 16.5359C41.4389 15.024 39.1338 14.0078 36.048 14.0078C29.6534 14.0078 26.2949 18.3081 26.2949 22.9306C26.2949 27.5531 29.517 31.8905 35.8497 31.8905C42.1824 31.8905 45.7391 28.1727 45.7639 22.9802C45.7639 22.9802 45.7639 22.9802 45.7639 22.9678C45.7639 20.3777 47.0776 18.1098 50.0023 18.1098C52.9269 18.1098 52.8402 18.8782 53.5094 20.0183C53.9679 18.3948 54.7983 16.9201 56.0127 15.7428C54.5008 14.7018 52.5304 14.045 50.0642 14.045C47.5981 14.045 44.661 15.024 43.0375 16.5359ZM36.0108 27.8505C33.2225 27.8505 31.7477 25.5826 31.7477 22.9306C31.7477 20.2785 33.0614 18.0726 35.9861 18.0726C38.9107 18.0726 40.2492 20.4644 40.2492 23.0297C40.2492 25.595 38.8983 27.8505 36.0108 27.8505Z" fill="white"/>
<path d="M5.52359 24.2686C5.65991 26.3382 7.13465 27.9493 9.68755 27.9493C12.2405 27.9493 12.637 27.3296 13.2691 26.2763H18.6475C17.5941 29.3001 15.066 31.915 9.62559 31.915C4.18517 31.915 0.169922 27.3173 0.169922 22.9922C0.169922 18.6671 3.39204 14.0322 9.58841 14.0322C15.7848 14.0322 18.8458 18.5928 18.8458 22.9922C18.8458 27.3916 18.8458 23.7481 18.8086 24.2686H5.5112H5.52359ZM13.4054 20.997C13.3062 19.7205 12.6122 17.812 9.56362 17.812C6.51501 17.812 5.72187 19.3239 5.59795 20.997H13.4054Z" fill="white"/>
<path d="M19.9004 31.4568V7.00586H25.2541V31.4568H19.9004Z" fill="white"/>
<path d="M10.2467 35.2611H8.87109V34.4556H12.6013V35.2611H11.2257V38.9913H10.2467V35.2611Z" fill="white"/>
<path d="M14.0499 34.1955V35.9924C14.1986 35.7694 14.4712 35.5091 15.0289 35.5091C15.5866 35.5091 16.169 35.8809 16.169 36.8104V38.9915H15.2396V36.9467C15.2396 36.5006 15.0785 36.2651 14.6943 36.2651C14.3101 36.2651 14.0747 36.6493 14.0747 37.1822V38.9791H13.1328V34.1831H14.0747L14.0499 34.1955Z" fill="white"/>
<path d="M17.757 37.4917C17.757 37.9131 17.9677 38.3344 18.4386 38.3344C18.9095 38.3344 18.9467 38.1733 19.0334 37.9751H19.9753C19.8513 38.3964 19.4796 39.078 18.4138 39.078C17.348 39.078 16.8027 38.2353 16.8027 37.3554C16.8027 36.4755 17.348 35.5337 18.4386 35.5337C19.5291 35.5337 20.0001 36.3764 20.0001 37.2315C20.0001 38.0866 20.0001 37.4174 20.0001 37.5165H17.757V37.4917ZM19.0706 36.9093C19.0706 36.5127 18.9095 36.1781 18.451 36.1781C17.9924 36.1781 17.8189 36.4879 17.7818 36.9093H19.0706Z" fill="white"/>
<path d="M22.293 34.4678H23.272V38.198H25.5275L25.4159 39.0035H22.293V34.4802V34.4678Z" fill="white"/>
<path d="M26.0977 34.1953H27.0395V35.038H26.0977V34.1953ZM26.0977 35.5957H27.0395V38.9913H26.0977V35.5957Z" fill="white"/>
<path d="M27.8815 34.1953H28.8234V35.9551C28.9597 35.732 29.2447 35.5213 29.79 35.5213C30.7195 35.5213 31.178 36.2897 31.178 37.2439C31.178 38.1982 30.6823 39.0781 29.7033 39.0781C28.7242 39.0781 28.9721 38.9293 28.811 38.6815C28.811 38.793 28.7986 38.917 28.7738 39.0037H27.8691C27.8691 38.6319 27.8691 38.2601 27.8691 37.8884V34.2077L27.8815 34.1953ZM30.2238 37.2439C30.2238 36.6739 30.0131 36.2649 29.505 36.2649C28.9969 36.2649 28.7738 36.6119 28.7738 37.3059C28.7738 37.9999 28.9473 38.3221 29.4926 38.3221C30.0379 38.3221 30.2238 37.8884 30.2238 37.2439Z" fill="white"/>
<path d="M31.8223 36.5131C31.8223 36.1785 31.8223 35.8811 31.8223 35.596H32.7393C32.7393 35.6704 32.7641 36.005 32.7641 36.1909C32.9128 35.8067 33.2722 35.5217 33.8547 35.5093V36.4016C33.1731 36.3892 32.7641 36.5627 32.7641 37.5045V38.9916H31.8223V36.5131Z" fill="white"/>
<path d="M37.1137 38.1115C37.1137 38.4337 37.1385 38.9046 37.1632 38.9913H36.2586C36.2338 38.9294 36.209 38.7435 36.209 38.6567C36.0851 38.8426 35.8496 39.0657 35.2548 39.0657C34.6599 39.0657 34.0898 38.5328 34.0898 37.9999C34.0898 37.2316 34.7095 36.8722 35.7133 36.8722H36.1966V36.6615C36.1966 36.426 36.1099 36.1782 35.6761 36.1782C35.2424 36.1782 35.1928 36.3517 35.1432 36.5871H34.251C34.3005 35.9799 34.6723 35.4966 35.7133 35.4966C36.618 35.4966 37.1137 35.856 37.1137 36.6615V38.0867V38.1115ZM36.1966 37.4422H35.8124C35.2424 37.4422 35.0317 37.6157 35.0317 37.938C35.0317 38.2602 35.1804 38.3965 35.515 38.3965C36.1099 38.3965 36.1842 37.9751 36.1842 37.529V37.4422H36.1966Z" fill="white"/>
<path d="M37.9707 36.5131C37.9707 36.1785 37.9707 35.8811 37.9707 35.596H38.8878C38.8878 35.6704 38.9126 36.005 38.9126 36.1909C39.0613 35.8067 39.4207 35.5217 40.0031 35.5093V36.4016C39.3215 36.3892 38.9126 36.5627 38.9126 37.5045V38.9916H37.9707V36.5131Z" fill="white"/>
<path d="M41.3658 35.5959C41.7128 36.7732 42.0226 37.8142 42.0722 38.124C42.1466 37.777 42.3448 37.0211 42.7538 35.5959H43.6957L42.5555 39.0906C42.2333 40.0697 41.9607 40.3547 41.1427 40.3547C40.3248 40.3547 40.8701 40.3547 40.6966 40.3299V39.574C40.7586 39.574 40.8577 39.5864 40.9445 39.5864C41.2915 39.5864 41.465 39.4624 41.5889 39.0906L40.3496 35.5835H41.3534L41.3658 35.5959Z" fill="white"/>
<path d="M46.5822 38.9911L45.4297 34.4678H46.4707C46.892 36.5498 47.0903 37.4668 47.1399 37.9625C47.3134 37.1322 47.7471 35.5583 48.0074 34.4678H48.8873C49.1227 35.3353 49.5813 37.095 49.73 37.9254C49.8787 36.9339 50.3248 35.1742 50.4859 34.4678H51.4402L50.2133 38.9911H49.1971C48.9616 37.9873 48.5651 36.525 48.4039 35.7566C48.2428 36.5621 47.8339 38.0865 47.586 38.9911H46.5698H46.5822Z" fill="white"/>
<path d="M51.8984 34.1953H52.8403V35.038H51.8984V34.1953ZM51.8984 35.5957H52.8403V38.9913H51.8984V35.5957Z" fill="white"/>
<path d="M53.4727 38.2849L55.1581 36.3393H53.5594V35.5957H56.2238V36.3269L54.5756 38.2478H56.3478L56.2362 38.9913H53.485V38.2849H53.4727Z" fill="white"/>
<path d="M59.7309 38.1115C59.7309 38.4337 59.7556 38.9046 59.7804 38.9913H58.8758C58.851 38.9294 58.8262 38.7435 58.8262 38.6567C58.7023 38.8426 58.4668 39.0657 57.872 39.0657C57.2771 39.0657 56.707 38.5328 56.707 37.9999C56.707 37.2316 57.3267 36.8722 58.3305 36.8722H58.8138V36.6615C58.8138 36.426 58.727 36.1782 58.2933 36.1782C57.8596 36.1782 57.81 36.3517 57.7604 36.5871H56.8681C56.9177 35.9799 57.2895 35.4966 58.3305 35.4966C59.2352 35.4966 59.7309 35.856 59.7309 36.6615V38.0867V38.1115ZM58.8138 37.4422H58.4296C57.8596 37.4422 57.6489 37.6157 57.6489 37.938C57.6489 38.2602 57.7976 38.3965 58.1322 38.3965C58.727 38.3965 58.8014 37.9751 58.8014 37.529V37.4422H58.8138Z" fill="white"/>
<path d="M60.5859 36.5131C60.5859 36.1785 60.5859 35.8811 60.5859 35.596H61.503C61.503 35.6704 61.5278 36.005 61.5278 36.1909C61.6765 35.8067 62.0359 35.5217 62.6184 35.5093V36.4016C61.9368 36.3892 61.5278 36.5627 61.5278 37.5045V38.9916H60.5859V36.5131Z" fill="white"/>
<path d="M66.2249 34.1955V38.0496C66.2249 38.3595 66.2249 38.6693 66.2249 38.9791H65.3202C65.2954 38.88 65.283 38.7065 65.283 38.6197C65.1219 38.8924 64.8245 39.0535 64.3164 39.0535C63.4613 39.0535 62.916 38.3595 62.916 37.3061C62.916 36.2527 63.4985 35.4967 64.4651 35.4967C65.4317 35.4967 65.2211 35.6702 65.2954 35.8189V34.1831H66.2373L66.2249 34.1955ZM63.8826 37.2937C63.8826 37.9505 64.1429 38.3099 64.6014 38.3099C65.06 38.3099 65.3202 37.7646 65.3202 37.2813C65.3202 36.798 65.2335 36.2651 64.6262 36.2651C64.019 36.2651 63.8826 36.6493 63.8826 37.2937Z" fill="white"/>
</g>
<defs>
<clipPath id="clip0_2558_96063">
<rect width="73" height="41" fill="white"/>
</clipPath>
</defs>
</svg>
