<svg width="28" height="32" viewBox="0 0 28 32" fill="none" xmlns="http://www.w3.org/2000/svg">
<path d="M9.33158 15.6603H8.16446C7.82729 15.6603 7.54874 15.5498 7.3288 15.3289C7.10886 15.1079 6.99838 14.8293 6.99734 14.4932C6.9963 14.1571 7.10679 13.8785 7.3288 13.6576C7.55081 13.4366 7.82936 13.3261 8.16446 13.3261H10.4987C10.8359 13.3261 11.1149 13.4366 11.3359 13.6576C11.5569 13.8785 11.6669 14.1571 11.6658 14.4932V21.4959C11.6658 21.8331 11.5553 22.1122 11.3344 22.3331C11.1134 22.5541 10.8348 22.6641 10.4987 22.663C10.1626 22.662 9.88401 22.5515 9.66304 22.3316C9.44206 22.1116 9.33158 21.8331 9.33158 21.4959V15.6603ZM14.7781 22.663C14.3372 22.663 13.9679 22.5137 13.6701 22.2149C13.3724 21.9161 13.223 21.5468 13.222 21.1069V14.8823C13.222 14.4413 13.3714 14.072 13.6701 13.7743C13.9689 13.4765 14.3383 13.3271 14.7781 13.3261H17.8904C18.3314 13.3261 18.7012 13.4755 19 13.7743C19.2988 14.0731 19.4476 14.4424 19.4466 14.8823V21.1069C19.4466 21.5478 19.2972 21.9176 18.9984 22.2164C18.6996 22.5152 18.3303 22.6641 17.8904 22.663H14.7781ZM15.5562 20.3288H17.1124V15.6603H15.5562V20.3288ZM14 32C12.0549 32 10.2331 31.6307 8.53482 30.892C6.83654 30.1534 5.35819 29.1548 4.09977 27.8964C2.84136 26.638 1.84283 25.1596 1.10417 23.4614C0.365513 21.7631 -0.00433366 19.9408 -0.00537109 17.9946C-0.00537109 17.5537 0.14402 17.1843 0.442803 16.8866C0.741585 16.5888 1.11091 16.4395 1.55079 16.4384C1.99066 16.4374 2.36051 16.5868 2.66033 16.8866C2.96015 17.1864 3.10902 17.5557 3.10694 17.9946C3.10694 21.0291 4.16409 23.6035 6.27839 25.7178C8.39269 27.8321 10.9666 28.8887 14 28.8877C17.0335 28.8866 19.6079 27.83 21.7233 25.7178C23.8386 23.6056 24.8952 21.0312 24.8932 17.9946C24.8911 14.958 23.8344 12.3841 21.7233 10.2729C19.6121 8.16173 17.0377 7.10458 14 7.10147H13.7666L15.0894 8.4242C15.4006 8.73543 15.55 9.09854 15.5375 9.51351C15.5251 9.92849 15.3757 10.2916 15.0894 10.6028C14.7781 10.9141 14.4088 11.0764 13.9814 11.0899C13.554 11.1034 13.1841 10.954 12.8718 10.6417L8.86473 6.63462C8.5535 6.32339 8.39788 5.96028 8.39788 5.54531C8.39788 5.13033 8.5535 4.76723 8.86473 4.456L12.8718 0.448892C13.1831 0.13766 13.5529 -0.011731 13.9814 0.000718227C14.4098 0.0131675 14.7792 0.175527 15.0894 0.487796C15.3747 0.799027 15.524 1.16213 15.5375 1.57711C15.551 1.99208 15.4016 2.35519 15.0894 2.66642L13.7666 3.98915H14C15.9452 3.98915 17.7675 4.359 19.4668 5.09869C21.1662 5.83838 22.6445 6.83692 23.9019 8.09429C25.1593 9.35167 26.1578 10.83 26.8975 12.5293C27.6372 14.2287 28.0065 16.0504 28.0055 17.9946C28.0044 19.9387 27.6351 21.761 26.8975 23.4614C26.1599 25.1617 25.1613 26.6401 23.9019 27.8964C22.6424 29.1527 21.1641 30.1513 19.4668 30.892C17.7696 31.6327 15.9473 32.0021 14 32Z" fill="#996C42"/>
</svg>
