<svg width="19" height="22" viewBox="0 0 19 22" fill="none" xmlns="http://www.w3.org/2000/svg">
<path d="M1.42169 17.0696C0.852776 17.0696 0.476562 16.5283 0.476562 15.7391V6.95775C0.476562 5.91169 0.577498 5.74652 1.47674 5.2235L9.17536 0.800688C9.45064 0.635521 9.70757 0.571289 9.94614 0.571289C10.46 0.571289 10.8546 0.947503 10.8179 1.55312L2.31175 6.45307C2.0273 6.60906 1.96307 6.73753 1.96307 7.06786V16.8861C1.77955 17.0146 1.58685 17.0696 1.42169 17.0696ZM5.08289 19.1893C4.53233 19.1893 4.12859 18.6479 4.12859 17.8588V9.06822C4.12859 8.04051 4.2387 7.84782 5.13794 7.33396L12.8366 2.90198C13.1118 2.75517 13.3688 2.68176 13.5982 2.68176C14.1396 2.68176 14.5158 3.06715 14.4882 3.66358L5.98213 8.57272C5.67933 8.73788 5.62427 8.82964 5.62427 9.18751V19.0058C5.44075 19.1342 5.25723 19.1893 5.08289 19.1893ZM9.01937 21.4282C8.322 21.4282 7.95496 20.841 7.95496 19.7766V11.4631C7.95496 10.463 8.25777 9.94911 9.12031 9.44443L16.3326 5.28773C16.7639 5.03998 17.1401 4.92069 17.4521 4.92069C18.1403 4.92069 18.5257 5.48042 18.5257 6.58154V14.8949C18.5257 15.9227 18.2228 16.4273 17.3787 16.9137L10.1847 21.0428C9.72592 21.2998 9.34053 21.4282 9.01937 21.4282Z" fill="#AEB1B1"/>
</svg>
