<svg width="24" height="24" viewBox="0 0 24 24" fill="none" xmlns="http://www.w3.org/2000/svg">
<path d="M5.02709 17.2385C4.53611 17.2385 4.21143 16.7712 4.21143 16.0902V8.51166C4.21143 7.60889 4.29854 7.46634 5.0746 7.01496L11.7187 3.19798C11.9563 3.05543 12.178 3 12.3839 3C12.8274 3 13.1679 3.32468 13.1362 3.84734L5.79524 8.07611C5.54975 8.21073 5.49431 8.3216 5.49431 8.60669V17.0801C5.33593 17.1909 5.16963 17.2385 5.02709 17.2385ZM8.18679 19.0678C7.71165 19.0678 7.36321 18.6005 7.36321 17.9195V10.333C7.36321 9.44611 7.45824 9.27981 8.2343 8.83634L14.8784 5.01144C15.116 4.88473 15.3377 4.82138 15.5357 4.82138C16.0029 4.82138 16.3276 5.15398 16.3038 5.66872L8.96286 9.90541C8.70153 10.048 8.65401 10.1271 8.65401 10.436V18.9094C8.49563 19.0202 8.33725 19.0678 8.18679 19.0678ZM11.5841 21C10.9822 21 10.6655 20.4932 10.6655 19.5746V12.3999C10.6655 11.5367 10.9268 11.0933 11.6712 10.6577L17.8955 7.07039C18.2677 6.85658 18.5924 6.75363 18.8617 6.75363C19.4556 6.75363 19.7882 7.23669 19.7882 8.18698V15.3616C19.7882 16.2486 19.5269 16.6841 18.7983 17.1038L12.5898 20.6674C12.1938 20.8891 11.8612 21 11.5841 21Z" fill="#566568"/>
</svg>
