<svg width="16" height="16" viewBox="0 0 16 16" fill="none" xmlns="http://www.w3.org/2000/svg">
<g opacity="0.6">
<path d="M9.66667 12.0007C9.2 12.0007 8.80556 11.8395 8.48333 11.5173C8.16111 11.1951 8 10.8007 8 10.334C8 9.86732 8.16111 9.47287 8.48333 9.15065C8.80556 8.82843 9.2 8.66732 9.66667 8.66732C10.1333 8.66732 10.5278 8.82843 10.85 9.15065C11.1722 9.47287 11.3333 9.86732 11.3333 10.334C11.3333 10.8007 11.1722 11.1951 10.85 11.5173C10.5278 11.8395 10.1333 12.0007 9.66667 12.0007ZM3.33333 14.6673C2.96667 14.6673 2.65278 14.5368 2.39167 14.2757C2.13056 14.0145 2 13.7007 2 13.334V4.00065C2 3.63398 2.13056 3.3201 2.39167 3.05898C2.65278 2.79787 2.96667 2.66732 3.33333 2.66732H4V1.33398H5.33333V2.66732H10.6667V1.33398H12V2.66732H12.6667C13.0333 2.66732 13.3472 2.79787 13.6083 3.05898C13.8694 3.3201 14 3.63398 14 4.00065V13.334C14 13.7007 13.8694 14.0145 13.6083 14.2757C13.3472 14.5368 13.0333 14.6673 12.6667 14.6673H3.33333ZM3.33333 13.334H12.6667V6.66732H3.33333V13.334ZM3.33333 5.33398H12.6667V4.00065H3.33333V5.33398Z" fill="#595959"/>
</g>
</svg>
