<svg width="25" height="25" viewBox="0 0 25 25" fill="none" xmlns="http://www.w3.org/2000/svg">
<path d="M9.94337 17.0213L12.5254 14.4393L15.1074 17.0213L16.6091 15.5196L14.0271 12.9376L16.6091 10.3556L15.1074 8.85382L12.5254 11.4358L9.94337 8.85382L8.44162 10.3556L11.0236 12.9376L8.44162 15.5196L9.94337 17.0213ZM7.45962 21.6408C6.82995 21.6408 6.29337 21.4191 5.84987 20.9756C5.40637 20.5321 5.18462 19.9955 5.18462 19.3658V6.50332H4.04712V4.22832H9.38787V3.09082H15.6509V4.22832H21.0036V6.50332H19.8661V19.3658C19.8661 19.9955 19.6444 20.5321 19.2009 20.9756C18.7574 21.4191 18.2208 21.6408 17.5911 21.6408H7.45962ZM17.5911 6.50332H7.45962V19.3658H17.5911V6.50332Z" fill="#D55454"/>
</svg>
