<svg width="24" height="24" viewBox="0 0 24 24" fill="none" xmlns="http://www.w3.org/2000/svg">
<path d="M15 2.00342H6C5.46957 2.00342 4.96086 2.21413 4.58579 2.5892C4.21071 2.96428 4 3.47298 4 4.00342V20.0034C4 20.5339 4.21071 21.0426 4.58579 21.4176C4.96086 21.7927 5.46957 22.0034 6 22.0034H18C18.5304 22.0034 19.0391 21.7927 19.4142 21.4176C19.7893 21.0426 20 20.5339 20 20.0034V7.00342L15 2.00342Z" stroke="#D9A678" stroke-width="2" stroke-linecap="round" stroke-linejoin="round"/>
<path d="M14 2.00342V6.00342C14 6.53385 14.2107 7.04256 14.5858 7.41763C14.9609 7.7927 15.4696 8.00342 16 8.00342H20" stroke="#D9A678" stroke-width="2" stroke-linecap="round" stroke-linejoin="round"/>
<path d="M10 9.00342H8" stroke="#D9A678" stroke-width="2" stroke-linecap="round" stroke-linejoin="round"/>
<path d="M16 13.0034H8" stroke="#D9A678" stroke-width="2" stroke-linecap="round" stroke-linejoin="round"/>
<path d="M16 17.0034H8" stroke="#D9A678" stroke-width="2" stroke-linecap="round" stroke-linejoin="round"/>
</svg>
