<svg width="23" height="17" viewBox="0 0 23 17" fill="none" xmlns="http://www.w3.org/2000/svg">
<path d="M5.57031 16.5621C4.05365 16.5621 2.75781 16.0371 1.68281 14.9871C0.607813 13.9371 0.0703125 12.6538 0.0703125 11.1371C0.0703125 9.83711 0.461979 8.67878 1.24531 7.66211C2.02865 6.64544 3.05365 5.99544 4.32031 5.71211C4.60365 4.51211 5.31198 3.37044 6.44531 2.28711C7.57865 1.20378 8.78698 0.662109 10.0703 0.662109C10.6203 0.662109 11.0911 0.857943 11.4828 1.24961C11.8745 1.64128 12.0703 2.11211 12.0703 2.66211V8.71211L13.6703 7.16211L15.0703 8.56211L11.0703 12.5621L7.07031 8.56211L8.47031 7.16211L10.0703 8.71211V2.66211C8.80365 2.89544 7.82031 3.50794 7.12031 4.49961C6.42031 5.49128 6.07031 6.51211 6.07031 7.56211H5.57031C4.60365 7.56211 3.77865 7.90378 3.09531 8.58711C2.41198 9.27044 2.07031 10.0954 2.07031 11.0621C2.07031 12.0288 2.41198 12.8538 3.09531 13.5371C3.77865 14.2204 4.60365 14.5621 5.57031 14.5621H17.5703C18.2703 14.5621 18.862 14.3204 19.3453 13.8371C19.8286 13.3538 20.0703 12.7621 20.0703 12.0621C20.0703 11.3621 19.8286 10.7704 19.3453 10.2871C18.862 9.80378 18.2703 9.56211 17.5703 9.56211H16.0703V7.56211C16.0703 6.76211 15.887 6.01628 15.5203 5.32461C15.1536 4.63294 14.6703 4.04544 14.0703 3.56211V1.23711C15.3036 1.82044 16.2786 2.68294 16.9953 3.82461C17.712 4.96628 18.0703 6.21211 18.0703 7.56211C19.2203 7.69544 20.1745 8.19128 20.9328 9.04961C21.6911 9.90794 22.0703 10.9121 22.0703 12.0621C22.0703 13.3121 21.6328 14.3746 20.7578 15.2496C19.8828 16.1246 18.8203 16.5621 17.5703 16.5621H5.57031Z" fill="#996C42"/>
</svg>
