<svg width="14" height="15" viewBox="0 0 14 15" fill="none" xmlns="http://www.w3.org/2000/svg">
<path d="M1.71085 12.9133H2.78788L10.176 5.52525L9.09893 4.44822L1.71085 11.8363V12.9133ZM0.199219 14.425V11.2128L10.176 1.25491C10.3271 1.11634 10.494 1.00927 10.6767 0.933685C10.8593 0.858103 11.0514 0.820312 11.253 0.820312C11.4545 0.820312 11.6498 0.858103 11.8388 0.933685C12.0277 1.00927 12.1915 1.12264 12.33 1.2738L13.3693 2.33194C13.5204 2.47051 13.6307 2.63427 13.6999 2.82322C13.7692 3.01217 13.8039 3.20113 13.8039 3.39008C13.8039 3.59163 13.7692 3.78373 13.6999 3.96639C13.6307 4.14904 13.5204 4.31595 13.3693 4.46711L3.41143 14.425H0.199219ZM9.628 4.99618L9.09893 4.44822L10.176 5.52525L9.628 4.99618Z" fill="#996C42"/>
</svg>
