<svg width="11" height="12" viewBox="0 0 11 12" fill="none" xmlns="http://www.w3.org/2000/svg">
<path d="M1.81002 10.0432H2.62652L8.22741 4.4423L7.41091 3.6258L1.81002 9.22669V10.0432ZM0.664062 11.1891V8.75398L8.22741 1.20495C8.34201 1.09991 8.46854 1.01873 8.60701 0.961435C8.74548 0.904137 8.89112 0.875488 9.04391 0.875488C9.1967 0.875488 9.34473 0.904137 9.48797 0.961435C9.63122 1.01873 9.75536 1.10468 9.86041 1.21928L10.6483 2.02145C10.7629 2.1265 10.8464 2.25064 10.8989 2.39389C10.9515 2.53713 10.9777 2.68038 10.9777 2.82362C10.9777 2.97642 10.9515 3.12205 10.8989 3.26052C10.8464 3.39899 10.7629 3.52553 10.6483 3.64012L3.09923 11.1891H0.664062ZM7.812 4.04121L7.41091 3.6258L8.22741 4.4423L7.812 4.04121Z" fill="white"/>
</svg>
