<svg width="28" height="32" viewBox="0 0 28 32" fill="none" xmlns="http://www.w3.org/2000/svg">
<path d="M14 32C12.0547 32 10.2329 31.6307 8.53451 30.892C6.83614 30.1533 5.35772 29.1547 4.09924 27.8962C2.84077 26.6377 1.84219 25.1593 1.10349 23.4609C0.364801 21.7626 -0.00506385 19.9402 -0.00610134 17.9939C-0.00713883 16.0476 0.362726 14.2257 1.10349 12.5284C1.84426 10.8311 2.84233 9.35265 4.09769 8.09314C5.35305 6.83362 6.83147 5.83504 8.53295 5.09739C10.2344 4.35973 12.0568 3.98987 14 3.98779H14.2334L12.9106 2.66499C12.5994 2.35375 12.45 1.99062 12.4624 1.57563C12.4749 1.16063 12.6243 0.797512 12.9106 0.486266C13.2219 0.175019 13.5917 0.0131704 14.0202 0.000720571C14.4487 -0.0117293 14.8181 0.13715 15.1283 0.44736L19.1356 4.45466C19.4468 4.76591 19.6024 5.12903 19.6024 5.54403C19.6024 5.95902 19.4468 6.32214 19.1356 6.63339L15.1283 10.6407C14.817 10.9519 14.4477 11.1013 14.0202 11.0889C13.5928 11.0764 13.2229 10.9141 12.9106 10.6018C12.6253 10.2905 12.4759 9.92742 12.4624 9.51242C12.449 9.09743 12.5984 8.7343 12.9106 8.42306L14.2334 7.10026H14C10.9653 7.10026 8.39134 8.15746 6.27797 10.2719C4.16461 12.3863 3.1074 14.9603 3.10637 17.9939C3.10533 21.0275 4.16253 23.602 6.27797 25.7175C8.39341 27.8329 10.9674 28.8896 14 28.8875C17.0326 28.8855 19.6071 27.8288 21.7236 25.7175C23.8401 23.6062 24.8968 21.0317 24.8936 17.9939C24.8936 17.553 25.043 17.1836 25.3418 16.8859C25.6406 16.5881 26.01 16.4387 26.4499 16.4377C26.8898 16.4366 27.2596 16.586 27.5595 16.8859C27.8593 17.1857 28.0082 17.555 28.0061 17.9939C28.0061 19.9392 27.6368 21.7615 26.8981 23.4609C26.1594 25.1604 25.1608 26.6388 23.9023 27.8962C22.6438 29.1537 21.1654 30.1522 19.4671 30.892C17.7687 31.6317 15.9463 32.001 14 32ZM9.3313 15.6595H8.16413C7.82694 15.6595 7.54838 15.5491 7.32843 15.3281C7.10848 15.1071 6.99799 14.8285 6.99695 14.4924C6.99591 14.1562 7.10641 13.8777 7.32843 13.6567C7.55045 13.4357 7.82902 13.3252 8.16413 13.3252H10.4985C10.8357 13.3252 11.1147 13.4357 11.3357 13.6567C11.5567 13.8777 11.6667 14.1562 11.6657 14.4924V21.4954C11.6657 21.8326 11.5552 22.1117 11.3342 22.3327C11.1132 22.5537 10.8346 22.6636 10.4985 22.6626C10.1623 22.6616 9.88377 22.5511 9.66278 22.3311C9.44179 22.1112 9.3313 21.8326 9.3313 21.4954V15.6595ZM14.7781 22.6626C14.3372 22.6626 13.9678 22.5132 13.6701 22.2144C13.3723 21.9156 13.2229 21.5463 13.2219 21.1064V14.8814C13.2219 14.4405 13.3713 14.0711 13.6701 13.7734C13.9689 13.4756 14.3382 13.3262 14.7781 13.3252H17.8906C18.3315 13.3252 18.7014 13.4746 19.0002 13.7734C19.299 14.0722 19.4479 14.4415 19.4468 14.8814V21.1064C19.4468 21.5473 19.2974 21.9172 18.9986 22.216C18.6998 22.5148 18.3305 22.6636 17.8906 22.6626H14.7781ZM15.5562 20.3282H17.1125V15.6595H15.5562V20.3282Z" fill="#996C42"/>
</svg>
