<svg width="40" height="40" viewBox="0 0 40 40" fill="none" xmlns="http://www.w3.org/2000/svg">
<path fill-rule="evenodd" clip-rule="evenodd" d="M15.8779 0C7.10876 0 0 7.10876 0 15.8779V24.1221C0 32.8912 7.10876 40 15.8779 40H24.1221C32.8912 40 40 32.8912 40 24.1221V15.8779C40 7.10876 32.8912 0 24.1221 0H15.8779Z" fill="#996C42"/>
<path d="M12.159 22.0838V18.6852H18.3826V22.0838H12.159ZM12.0928 16.2796L13.4391 14.7789V26.1446L11.9825 24.4894H19.5743V27.9102H9.86382V12.8809H19.5743V16.2796H12.0928ZM30.8583 27.9102H21.5451V12.8809H25.1203V25.9681L24.1272 24.4453H30.8583V27.9102Z" fill="#FBF1EA"/>
</svg>
