<svg  width="17" height="18" viewBox="0 0 17 18" fill="currentColor" xmlns="http://www.w3.org/2000/svg">
<path d="M1.76655 8.23838C0.594531 8.23838 0.00390625 7.64775 0.00390625 6.42959V2.30444C0.00390625 1.08628 0.594531 0.504883 1.76655 0.504883H5.97476C7.14678 0.504883 7.7374 1.08628 7.7374 2.30444V6.42959C7.7374 7.64775 7.14678 8.23838 5.97476 8.23838H1.76655ZM11.032 8.23838C9.85073 8.23838 9.26011 7.64775 9.26011 6.42959V2.30444C9.26011 1.08628 9.85073 0.504883 11.032 0.504883H15.231C16.403 0.504883 16.9936 1.08628 16.9936 2.30444V6.42959C16.9936 7.64775 16.403 8.23838 15.231 8.23838H11.032ZM1.76655 17.4946C0.594531 17.4946 0.00390625 16.9132 0.00390625 15.695V11.5606C0.00390625 10.3517 0.594531 9.76108 1.76655 9.76108H5.97476C7.14678 9.76108 7.7374 10.3517 7.7374 11.5606V15.695C7.7374 16.9132 7.14678 17.4946 5.97476 17.4946H1.76655ZM11.032 17.4946C9.85073 17.4946 9.26011 16.9132 9.26011 15.695V11.5606C9.26011 10.3517 9.85073 9.76108 11.032 9.76108H15.231C16.403 9.76108 16.9936 10.3517 16.9936 11.5606V15.695C16.9936 16.9132 16.403 17.4946 15.231 17.4946H11.032Z" fill="#AEB1B1"/>
</svg>
