<svg width="17" height="20" viewBox="0 0 17 20" fill="none" xmlns="http://www.w3.org/2000/svg">
<path d="M9 20.0034L8.75 17.0034H8.5C6.13333 17.0034 4.125 16.1784 2.475 14.5284C0.825 12.8784 0 10.8701 0 8.50342C0 6.13675 0.825 4.12842 2.475 2.47842C4.125 0.828418 6.13333 0.00341797 8.5 0.00341797C9.68333 0.00341797 10.7875 0.224251 11.8125 0.665918C12.8375 1.10758 13.7375 1.71592 14.5125 2.49092C15.2875 3.26592 15.8958 4.16592 16.3375 5.19092C16.7792 6.21592 17 7.32008 17 8.50342C17 9.75342 16.7958 10.9534 16.3875 12.1034C15.9792 13.2534 15.4208 14.3201 14.7125 15.3034C14.0042 16.2868 13.1625 17.1784 12.1875 17.9784C11.2125 18.7784 10.15 19.4534 9 20.0034ZM11 16.3534C12.1833 15.3534 13.1458 14.1826 13.8875 12.8409C14.6292 11.4993 15 10.0534 15 8.50342C15 6.68675 14.3708 5.14925 13.1125 3.89092C11.8542 2.63258 10.3167 2.00342 8.5 2.00342C6.68333 2.00342 5.14583 2.63258 3.8875 3.89092C2.62917 5.14925 2 6.68675 2 8.50342C2 10.3201 2.62917 11.8576 3.8875 13.1159C5.14583 14.3743 6.68333 15.0034 8.5 15.0034H11V16.3534ZM8.475 13.9784C8.75833 13.9784 9 13.8784 9.2 13.6784C9.4 13.4784 9.5 13.2368 9.5 12.9534C9.5 12.6701 9.4 12.4284 9.2 12.2284C9 12.0284 8.75833 11.9284 8.475 11.9284C8.19167 11.9284 7.95 12.0284 7.75 12.2284C7.55 12.4284 7.45 12.6701 7.45 12.9534C7.45 13.2368 7.55 13.4784 7.75 13.6784C7.95 13.8784 8.19167 13.9784 8.475 13.9784ZM7.75 10.8034H9.25C9.25 10.3034 9.3 9.95342 9.4 9.75342C9.5 9.55342 9.81667 9.18675 10.35 8.65342C10.65 8.35342 10.9 8.02842 11.1 7.67842C11.3 7.32842 11.4 6.95342 11.4 6.55342C11.4 5.70342 11.1125 5.06592 10.5375 4.64092C9.9625 4.21592 9.28333 4.00342 8.5 4.00342C7.76667 4.00342 7.15 4.20758 6.65 4.61592C6.15 5.02425 5.8 5.52008 5.6 6.10342L7 6.65342C7.08333 6.37008 7.24167 6.09092 7.475 5.81592C7.70833 5.54092 8.05 5.40342 8.5 5.40342C8.95 5.40342 9.2875 5.52842 9.5125 5.77842C9.7375 6.02842 9.85 6.30342 9.85 6.60342C9.85 6.88675 9.76667 7.14092 9.6 7.36592C9.43333 7.59092 9.23333 7.82008 9 8.05342C8.41667 8.55342 8.0625 8.94925 7.9375 9.24092C7.8125 9.53259 7.75 10.0534 7.75 10.8034Z" fill="#D3D3D3"/>
</svg>
