<svg width="22" height="22" viewBox="0 0 22 22" fill="none" xmlns="http://www.w3.org/2000/svg">
<path fill-rule="evenodd" clip-rule="evenodd" d="M14.2133 3.07191C14.7399 3.07191 15.2657 3.14619 15.7656 3.31394C18.8461 4.31544 19.9561 7.6955 19.0288 10.6499C18.503 12.1597 17.6434 13.5376 16.5176 14.6634C14.906 16.2241 13.1375 17.6095 11.2338 18.803L11.0252 18.929L10.8082 18.7946C8.89783 17.6095 7.11933 16.2241 5.49273 14.6551C4.37439 13.5292 3.51393 12.1597 2.9798 10.6499C2.03672 7.6955 3.14672 4.31544 6.26055 3.29641C6.50257 3.21296 6.75211 3.15453 7.00249 3.12199H7.10264C7.33716 3.08777 7.57001 3.07191 7.80369 3.07191H7.89549C8.42128 3.08777 8.93038 3.17957 9.42362 3.34732H9.47286C9.50624 3.36318 9.53128 3.38071 9.54797 3.39656C9.73241 3.45582 9.90684 3.52259 10.0738 3.61439L10.3909 3.75627C10.4675 3.79714 10.5535 3.85959 10.6279 3.91356C10.675 3.94776 10.7174 3.97855 10.7498 3.9983C10.7634 4.00633 10.7772 4.01441 10.7912 4.02256C10.8627 4.06433 10.9373 4.10785 11.0001 4.15603C11.9274 3.44747 13.0532 3.06356 14.2133 3.07191ZM16.4333 9.08086C16.7755 9.07168 17.0676 8.7971 17.0926 8.44574V8.34643C17.1177 7.17718 16.4091 6.11809 15.3317 5.70914C14.9895 5.59147 14.6139 5.77591 14.4887 6.12643C14.3719 6.47696 14.5555 6.86087 14.906 6.98522C15.441 7.18552 15.799 7.71214 15.799 8.29552V8.32139C15.7832 8.51251 15.8408 8.69695 15.9576 8.83883C16.0744 8.98071 16.2497 9.06333 16.4333 9.08086Z" fill="#BDA99A"/>
</svg>
