<svg width="21" height="21" viewBox="0 0 21 21" fill="none" xmlns="http://www.w3.org/2000/svg">
<path opacity="0.6" d="M8.03516 14.5156L15.0352 10.0156L8.03516 5.51562V14.5156ZM10.5352 20.0156C9.15182 20.0156 7.85182 19.7531 6.63516 19.2281C5.41849 18.7031 4.36016 17.9906 3.46016 17.0906C2.56016 16.1906 1.84766 15.1323 1.32266 13.9156C0.797656 12.699 0.535156 11.399 0.535156 10.0156C0.535156 8.63229 0.797656 7.33229 1.32266 6.11562C1.84766 4.89896 2.56016 3.84063 3.46016 2.94062C4.36016 2.04063 5.41849 1.32812 6.63516 0.803125C7.85182 0.278125 9.15182 0.015625 10.5352 0.015625C11.9185 0.015625 13.2185 0.278125 14.4352 0.803125C15.6518 1.32812 16.7102 2.04063 17.6102 2.94062C18.5102 3.84063 19.2227 4.89896 19.7477 6.11562C20.2727 7.33229 20.5352 8.63229 20.5352 10.0156C20.5352 11.399 20.2727 12.699 19.7477 13.9156C19.2227 15.1323 18.5102 16.1906 17.6102 17.0906C16.7102 17.9906 15.6518 18.7031 14.4352 19.2281C13.2185 19.7531 11.9185 20.0156 10.5352 20.0156Z" fill="#996C42"/>
</svg>
