<svg width="221" height="124" viewBox="0 0 221 124" fill="none" xmlns="http://www.w3.org/2000/svg">
<path d="M130.219 1.87957C122.086 24.8164 105.633 38.2711 105.633 38.2711C105.633 38.2711 122.123 36.3972 130.818 44.7924C137.077 37.4091 152.893 38.5335 152.893 38.5335C152.893 38.5335 145.435 32.462 141.912 31.1502C112.491 20.1316 146.447 32.5369 144.011 29.4637C141.125 25.8658 133.367 5.62742 138.426 16.0839C140.75 18.9697 148.283 16.6461 152.893 27.2525C155.854 29.6136 152.256 8.47578 143.224 6.0022C139.251 4.91533 135.466 1.91705 133.142 0.680264C130.818 -0.556524 130.631 0.605307 130.219 1.80462V1.87957Z" fill="white"/>
<path d="M180.7 73.6131C181.112 79.872 185.572 84.7442 193.293 84.7442C201.014 84.7442 202.213 82.8703 204.124 79.6846H220.39C217.204 88.8294 209.559 96.7373 193.106 96.7373C176.653 96.7373 164.51 82.8328 164.51 69.7529C164.51 56.6729 174.254 42.6559 192.993 42.6559C211.732 42.6559 220.99 56.448 220.99 69.7529C220.99 83.0577 220.99 72.039 220.877 73.6131H180.663H180.7ZM204.537 63.7188C204.237 59.8585 202.138 54.0869 192.918 54.0869C183.698 54.0869 181.3 58.6592 180.925 63.7188H204.537Z" fill="white"/>
<path d="M130.594 50.2265C125.759 45.6542 118.788 42.5809 109.456 42.5809C90.1174 42.5809 79.9608 55.5859 79.9608 69.5654C79.9608 83.5449 89.7052 96.6623 108.857 96.6623C128.008 96.6623 138.764 85.4188 138.839 69.7153C138.839 69.7153 138.839 69.7153 138.839 69.6778C138.839 61.8448 142.812 54.9863 151.657 54.9863C160.502 54.9863 160.24 57.3099 162.263 60.758C163.65 55.8483 166.161 51.3884 169.834 47.8279C165.262 44.6797 159.303 42.6934 151.844 42.6934C144.386 42.6934 135.504 45.6542 130.594 50.2265ZM109.344 84.4443C100.911 84.4443 96.4513 77.5858 96.4513 69.5654C96.4513 61.545 100.424 54.8738 109.269 54.8738C118.114 54.8738 122.162 62.1072 122.162 69.8652C122.162 77.6233 118.076 84.4443 109.344 84.4443Z" fill="white"/>
<path d="M17.1448 73.6131C17.557 79.872 22.017 84.7442 29.7375 84.7442C37.4581 84.7442 38.6574 82.8703 40.5688 79.6846H56.8344C53.6488 88.8294 46.0031 96.7373 29.5501 96.7373C13.0971 96.7373 0.954071 82.8328 0.954071 69.7529C0.954071 56.6729 10.6985 42.6559 29.4377 42.6559C48.1769 42.6559 57.4341 56.448 57.4341 69.7529C57.4341 83.0577 57.4341 72.039 57.3216 73.6131H17.1073H17.1448ZM40.981 63.7188C40.6812 59.8585 38.5824 54.0869 29.3627 54.0869C20.143 54.0869 17.7444 58.6592 17.3696 63.7188H40.981Z" fill="white"/>
<path d="M60.6231 95.3508V21.4058H76.8138V95.3508H60.6231Z" fill="white"/>
<path d="M31.1601 108.26H27V105.824H38.281V108.26H34.1209V119.541H31.1601V108.26Z" fill="white"/>
<path d="M42.6647 105.037V110.472C43.1145 109.797 43.939 109.01 45.6255 109.01C47.3121 109.01 49.0735 110.134 49.0735 112.945V119.542H46.2627V113.358C46.2627 112.008 45.7754 111.296 44.6136 111.296C43.4518 111.296 42.7397 112.458 42.7397 114.07V119.504H39.8913V105H42.7397L42.6647 105.037Z" fill="white"/>
<path d="M53.8715 115.007C53.8715 116.281 54.5087 117.555 55.9328 117.555C57.357 117.555 57.4695 117.068 57.7318 116.468H60.5802C60.2054 117.743 59.081 119.804 55.8579 119.804C52.6347 119.804 50.9857 117.255 50.9857 114.594C50.9857 111.933 52.6347 109.085 55.9328 109.085C59.2309 109.085 60.6551 111.634 60.6551 114.22C60.6551 116.806 60.6551 114.782 60.6551 115.082H53.8715V115.007ZM57.8442 113.245C57.8442 112.046 57.357 111.034 55.9703 111.034C54.5836 111.034 54.0589 111.971 53.9465 113.245H57.8442Z" fill="white"/>
<path d="M67.5872 105.862H70.548V117.143H77.3691L77.0318 119.579H67.5872V105.899V105.862Z" fill="white"/>
<path d="M79.0959 105.037H81.9443V107.586H79.0959V105.037ZM79.0959 109.272H81.9443V119.541H79.0959V109.272Z" fill="white"/>
<path d="M84.4916 105.037H87.3399V110.359C87.7522 109.685 88.6142 109.047 90.2633 109.047C93.0742 109.047 94.4609 111.371 94.4609 114.257C94.4609 117.143 92.9617 119.804 90.0009 119.804C87.0401 119.804 87.7897 119.354 87.3025 118.604C87.3025 118.942 87.265 119.317 87.19 119.579H84.4541C84.4541 118.455 84.4541 117.33 84.4541 116.206V105.075L84.4916 105.037ZM91.575 114.257C91.575 112.533 90.9379 111.296 89.4013 111.296C87.8646 111.296 87.19 112.346 87.19 114.444C87.19 116.543 87.7147 117.518 89.3638 117.518C91.0128 117.518 91.575 116.206 91.575 114.257Z" fill="white"/>
<path d="M96.4096 112.046C96.4096 111.034 96.4096 110.135 96.4096 109.273H99.183C99.183 109.498 99.258 110.509 99.258 111.072C99.7077 109.91 100.795 109.048 102.556 109.01V111.709C100.495 111.671 99.258 112.196 99.258 115.044V119.542H96.4096V112.046Z" fill="white"/>
<path d="M112.415 116.881C112.415 117.855 112.49 119.279 112.565 119.542H109.829C109.754 119.354 109.679 118.792 109.679 118.53C109.304 119.092 108.592 119.766 106.793 119.766C104.994 119.766 103.27 118.155 103.27 116.543C103.27 114.22 105.144 113.133 108.18 113.133H109.642V112.496C109.642 111.784 109.379 111.034 108.068 111.034C106.756 111.034 106.606 111.559 106.456 112.271H103.758C103.908 110.434 105.032 108.973 108.18 108.973C110.916 108.973 112.415 110.06 112.415 112.496V116.806V116.881ZM109.642 114.857H108.48C106.756 114.857 106.119 115.381 106.119 116.356C106.119 117.33 106.568 117.743 107.58 117.743C109.379 117.743 109.604 116.468 109.604 115.119V114.857H109.642Z" fill="white"/>
<path d="M115.002 112.046C115.002 111.034 115.002 110.135 115.002 109.273H117.776C117.776 109.498 117.851 110.509 117.851 111.072C118.301 109.91 119.387 109.048 121.149 109.01V111.709C119.088 111.671 117.851 112.196 117.851 115.044V119.542H115.002V112.046Z" fill="white"/>
<path d="M125.269 109.273C126.319 112.833 127.255 115.981 127.405 116.918C127.63 115.869 128.23 113.583 129.467 109.273H132.315L128.867 119.841C127.893 122.802 127.068 123.664 124.595 123.664C122.121 123.664 123.77 123.664 123.245 123.589V121.303C123.433 121.303 123.733 121.341 123.995 121.341C125.044 121.341 125.569 120.966 125.944 119.841L122.196 109.235H125.232L125.269 109.273Z" fill="white"/>
<path d="M141.046 119.541L137.56 105.862H140.709C141.983 112.158 142.582 114.931 142.732 116.431C143.257 113.92 144.569 109.16 145.356 105.862H148.017C148.729 108.485 150.116 113.807 150.565 116.318C151.015 113.32 152.364 107.998 152.852 105.862H155.737L152.027 119.541H148.954C148.242 116.506 147.042 112.083 146.555 109.759C146.068 112.196 144.831 116.805 144.082 119.541H141.008H141.046Z" fill="white"/>
<path d="M157.127 105.037H159.975V107.586H157.127V105.037ZM157.127 109.272H159.975V119.541H157.127V109.272Z" fill="white"/>
<path d="M161.884 117.406L166.981 111.521H162.146V109.273H170.204V111.484L165.219 117.293H170.579L170.241 119.542H161.921V117.406H161.884Z" fill="white"/>
<path d="M180.809 116.881C180.809 117.855 180.884 119.279 180.959 119.542H178.223C178.148 119.354 178.073 118.792 178.073 118.53C177.699 119.092 176.986 119.766 175.188 119.766C173.389 119.766 171.665 118.155 171.665 116.543C171.665 114.22 173.538 113.133 176.574 113.133H178.036V112.496C178.036 111.784 177.774 111.034 176.462 111.034C175.15 111.034 175 111.559 174.85 112.271H172.152C172.302 110.434 173.426 108.973 176.574 108.973C179.31 108.973 180.809 110.06 180.809 112.496V116.806V116.881ZM178.036 114.857H176.874C175.15 114.857 174.513 115.381 174.513 116.356C174.513 117.33 174.963 117.743 175.975 117.743C177.774 117.743 177.998 116.468 177.998 115.119V114.857H178.036Z" fill="white"/>
<path d="M183.397 112.046C183.397 111.034 183.397 110.135 183.397 109.273H186.17C186.17 109.498 186.245 110.509 186.245 111.072C186.695 109.91 187.782 109.048 189.543 109.01V111.709C187.482 111.671 186.245 112.196 186.245 115.044V119.542H183.397V112.046Z" fill="white"/>
<path d="M200.448 105.037V116.693C200.448 117.63 200.448 118.567 200.448 119.504H197.712C197.637 119.204 197.599 118.68 197.599 118.417C197.112 119.242 196.213 119.729 194.676 119.729C192.09 119.729 190.441 117.63 190.441 114.444C190.441 111.259 192.203 108.973 195.126 108.973C198.049 108.973 197.412 109.497 197.637 109.947V105H200.485L200.448 105.037ZM193.364 114.407C193.364 116.393 194.151 117.48 195.538 117.48C196.925 117.48 197.712 115.831 197.712 114.37C197.712 112.908 197.45 111.296 195.613 111.296C193.777 111.296 193.364 112.458 193.364 114.407Z" fill="white"/>
</svg>
