<svg width="79" height="78" viewBox="0 0 79 78" fill="none" xmlns="http://www.w3.org/2000/svg">
<path fill-rule="evenodd" clip-rule="evenodd" d="M31.4628 0C14.3631 0 0.500977 13.8621 0.500977 30.9618V47.0382C0.500977 64.1379 14.3631 78 31.4628 78H47.5391C64.6389 78 78.501 64.1379 78.501 47.0382V30.9618C78.501 13.8621 64.6389 0 47.5391 0H31.4628Z" fill="white"/>
<path d="M24.1988 42.3145V35.687H36.3347V42.3145H24.1988ZM24.0697 30.9962L26.6948 28.0698V50.233L23.8545 47.0053H38.6586V53.6758H19.7231V24.3688H38.6586V30.9962H24.0697ZM60.6624 53.6758H42.5015V24.3688H49.4733V49.8887L47.5367 46.9192H60.6624V53.6758Z" fill="#A98667"/>
</svg>
