<svg width="28" height="28" viewBox="0 0 28 28" fill="none" xmlns="http://www.w3.org/2000/svg">
    <path d="M13.9987 16.333C13.0265 16.333 12.2001 15.9927 11.5195 15.3122C10.839
14.6316 10.4987 13.8052 10.4987 12.833V5.83301C10.4987 4.86079 10.839 4.0344
11.5195 3.35384C12.2001 2.67329 13.0265 2.33301 13.9987 2.33301C14.9709 2.33301
15.7973 2.67329 16.4779 3.35384C17.1584 4.0344 17.4987 4.86079 17.4987 5.83301V12.833C17.4987
13.8052 17.1584 14.6316 16.4779 15.3122C15.7973 15.9927 14.9709 16.333 13.9987
16.333ZM12.832 24.4997V20.9122C10.8098 20.64 9.13759 19.7358
7.81536 18.1997C6.49314 16.6636 5.83203 14.8747 5.83203
12.833H8.16536C8.16536 14.4469 8.73411 15.8226 9.87161 16.9601C11.0091
18.0976 12.3848 18.6663 13.9987 18.6663C15.6126 18.6663 16.9883 18.0976 18.1258
16.9601C19.2633 15.8226 19.832 14.4469 19.832 12.833H22.1654C22.1654 14.8747
21.5043 16.6636 20.182 18.1997C18.8598 19.7358 17.1876 20.64 15.1654
20.9122V24.4997H12.832ZM13.9987 13.9997C14.3293 13.9997 14.6063 13.8879 14.8299
13.6643C15.0536 13.4406 15.1654 13.1636 15.1654 12.833V5.83301C15.1654 5.50245 15.0536
5.22537 14.8299 5.00176C14.6063 4.77815 14.3293 4.66634 13.9987 4.66634C13.6681
4.66634 13.3911 4.77815 13.1674 5.00176C12.9438 5.22537 12.832 5.50245 12.832
5.83301V12.833C12.832 13.1636 12.9438 13.4406 13.1674 13.6643C13.3911 13.8879
13.6681 13.9997 13.9987 13.9997Z" fill="#996C42"/>
</svg>