<svg width="20" height="20" viewBox="0 0 20 20" fill="none" xmlns="http://www.w3.org/2000/svg">
<path d="M10 1.66675C9.33696 1.66675 8.70107 1.93014 8.23223 2.39898C7.76339 2.86782 7.5 3.50371 7.5 4.16675V10.0001C7.5 10.6631 7.76339 11.299 8.23223 11.7678C8.70107 12.2367 9.33696 12.5001 10 12.5001C10.663 12.5001 11.2989 12.2367 11.7678 11.7678C12.2366 11.299 12.5 10.6631 12.5 10.0001V4.16675C12.5 3.50371 12.2366 2.86782 11.7678 2.39898C11.2989 1.93014 10.663 1.66675 10 1.66675Z" stroke="white" stroke-width="2" stroke-linecap="round" stroke-linejoin="round"/>
<path d="M15.8334 8.33325V9.99992C15.8334 11.547 15.2188 13.0307 14.1249 14.1247C13.0309 15.2187 11.5472 15.8333 10.0001 15.8333C8.45299 15.8333 6.96925 15.2187 5.87529 14.1247C4.78133 13.0307 4.16675 11.547 4.16675 9.99992V8.33325" stroke="white" stroke-width="2" stroke-linecap="round" stroke-linejoin="round"/>
<path d="M10 15.8333V18.3333" stroke="white" stroke-width="2" stroke-linecap="round" stroke-linejoin="round"/>
</svg>
