<svg width="30" height="31" viewBox="0 0 30 31" fill="none" xmlns="http://www.w3.org/2000/svg">
<path d="M14.9996 15.0988C12.9308 15.0988 11.169 14.3714 9.71423 12.9167C8.25951 11.4619 7.53215 9.70014 7.53215 7.63125C7.53215 5.56236 8.25951 3.80458 9.71423 2.35792C11.169 0.910971 12.9308 0.1875 14.9996 0.1875C17.0685 0.1875 18.8303 0.910971 20.2851 2.35792C21.7398 3.80458 22.4671 5.56236 22.4671 7.63125C22.4671 9.70014 21.7398 11.4619 20.2851 12.9167C18.8303 14.3714 17.0685 15.0988 14.9996 15.0988ZM0.865479 30.0338V24.5192C0.865479 23.4286 1.14937 22.4263 1.71715 21.5121C2.28465 20.5982 3.03881 19.9007 3.97965 19.4196C5.74909 18.5426 7.55367 17.8811 9.3934 17.435C11.2334 16.9886 13.1021 16.7654 14.9996 16.7654C16.9271 16.7654 18.8112 16.9846 20.6517 17.4229C22.4923 17.8615 24.2816 18.5192 26.0196 19.3958C26.9605 19.8747 27.7146 20.569 28.2821 21.4788C28.8499 22.3885 29.1338 23.4015 29.1338 24.5179V30.0338H0.865479Z" fill="#EAF9FF"/>
</svg>
