<svg width="18" height="21" viewBox="0 0 18 21" fill="none" xmlns="http://www.w3.org/2000/svg">
<path d="M9.28516 20.0156L9.03516 17.0156H8.78516C6.41849 17.0156 4.41016 16.1906 2.76016 14.5406C1.11016 12.8906 0.285156 10.8823 0.285156 8.51562C0.285156 6.14896 1.11016 4.14062 2.76016 2.49063C4.41016 0.840625 6.41849 0.015625 8.78516 0.015625C9.96849 0.015625 11.0727 0.236458 12.0977 0.678125C13.1227 1.11979 14.0227 1.72812 14.7977 2.50312C15.5727 3.27813 16.181 4.17812 16.6227 5.20312C17.0643 6.22813 17.2852 7.33229 17.2852 8.51562C17.2852 9.76562 17.081 10.9656 16.6727 12.1156C16.2643 13.2656 15.706 14.3323 14.9977 15.3156C14.2893 16.299 13.4477 17.1906 12.4727 17.9906C11.4977 18.7906 10.4352 19.4656 9.28516 20.0156ZM11.2852 16.3656C12.4685 15.3656 13.431 14.1948 14.1727 12.8531C14.9143 11.5115 15.2852 10.0656 15.2852 8.51562C15.2852 6.69896 14.656 5.16146 13.3977 3.90313C12.1393 2.64479 10.6018 2.01562 8.78516 2.01562C6.96849 2.01562 5.43099 2.64479 4.17266 3.90313C2.91432 5.16146 2.28516 6.69896 2.28516 8.51562C2.28516 10.3323 2.91432 11.8698 4.17266 13.1281C5.43099 14.3865 6.96849 15.0156 8.78516 15.0156H11.2852V16.3656ZM8.76016 13.9906C9.04349 13.9906 9.28516 13.8906 9.48516 13.6906C9.68516 13.4906 9.78516 13.249 9.78516 12.9656C9.78516 12.6823 9.68516 12.4406 9.48516 12.2406C9.28516 12.0406 9.04349 11.9406 8.76016 11.9406C8.47682 11.9406 8.23516 12.0406 8.03516 12.2406C7.83516 12.4406 7.73516 12.6823 7.73516 12.9656C7.73516 13.249 7.83516 13.4906 8.03516 13.6906C8.23516 13.8906 8.47682 13.9906 8.76016 13.9906ZM8.03516 10.8156H9.53516C9.53516 10.3156 9.58516 9.96562 9.68516 9.76562C9.78516 9.56563 10.1018 9.19896 10.6352 8.66563C10.9352 8.36563 11.1852 8.04063 11.3852 7.69063C11.5852 7.34063 11.6852 6.96563 11.6852 6.56563C11.6852 5.71563 11.3977 5.07812 10.8227 4.65313C10.2477 4.22813 9.56849 4.01562 8.78516 4.01562C8.05182 4.01562 7.43516 4.21979 6.93516 4.62813C6.43516 5.03646 6.08516 5.53229 5.88516 6.11562L7.28516 6.66563C7.36849 6.38229 7.52682 6.10313 7.76016 5.82812C7.99349 5.55312 8.33516 5.41563 8.78516 5.41563C9.23516 5.41563 9.57266 5.54063 9.79766 5.79063C10.0227 6.04063 10.1352 6.31563 10.1352 6.61562C10.1352 6.89896 10.0518 7.15313 9.88516 7.37813C9.71849 7.60313 9.51849 7.83229 9.28516 8.06563C8.70182 8.56563 8.34766 8.96146 8.22266 9.25313C8.09766 9.54479 8.03516 10.0656 8.03516 10.8156Z" fill="#996C42"/>
</svg>
