<svg width="19" height="22" viewBox="0 0 19 22" fill="none" xmlns="http://www.w3.org/2000/svg">
<path d="M9.24264 21.3635L9.1114 18.0972L8.8312 18.0837C6.50993 17.9303 4.5613 17.0159 2.98531 15.3404C1.40917 13.6651 0.621094 11.6623 0.621094 9.33192C0.621094 6.8933 1.47231 4.82733 3.17475 3.13399C4.87718 1.4405 6.94771 0.59375 9.38633 0.59375C10.6012 0.59375 11.7379 0.823339 12.7964 1.28252C13.8551 1.74169 14.7827 2.36955 15.5792 3.16608C16.3758 3.96262 17.0036 4.89023 17.4628 5.94893C17.922 7.00746 18.1516 8.14415 18.1516 9.35898C18.1516 10.6918 17.9177 11.9565 17.4499 13.1529C16.9819 14.3493 16.3455 15.4567 15.5407 16.4753C14.7358 17.4941 13.7919 18.4138 12.709 19.2342C11.626 20.0547 10.4706 20.7645 9.24264 21.3635ZM9.37603 14.7391C9.70157 14.7391 9.97595 14.6275 10.1991 14.4045C10.4222 14.1813 10.5337 13.9069 10.5337 13.5814C10.5337 13.2557 10.4222 12.9813 10.1991 12.7583C9.97595 12.5351 9.70157 12.4235 9.37603 12.4235C9.05033 12.4235 8.77596 12.5351 8.55291 12.7583C8.32971 12.9813 8.21811 13.2557 8.21811 13.5814C8.21811 13.9069 8.32971 14.1813 8.55291 14.4045C8.77596 14.6275 9.05033 14.7391 9.37603 14.7391ZM8.50549 11.5759H10.2672C10.2672 11.0878 10.3218 10.7345 10.4312 10.5159C10.5406 10.2972 10.8237 9.95946 11.2804 9.50268C11.5859 9.19725 11.8366 8.8769 12.0327 8.54161C12.2287 8.20633 12.3268 7.82906 12.3268 7.4098C12.3268 6.54142 12.0469 5.88786 11.4871 5.44912C10.9272 5.01037 10.2359 4.791 9.41339 4.791C8.67481 4.791 8.04121 5.01365 7.51258 5.45893C6.98395 5.90422 6.61482 6.44243 6.40519 7.07356L8.05765 7.72209C8.14658 7.44173 8.29602 7.16305 8.50597 6.88604C8.71592 6.60903 9.00938 6.47053 9.38633 6.47053C9.76328 6.47053 10.046 6.57223 10.2344 6.77564C10.4229 6.97904 10.5172 7.20639 10.5172 7.4577C10.5172 7.69303 10.435 7.91623 10.2708 8.1273C10.1066 8.33821 9.93539 8.53291 9.75706 8.71141C9.18915 9.20843 8.83854 9.61468 8.70523 9.93016C8.57207 10.2456 8.50549 10.7942 8.50549 11.5759Z" fill="#AEB1B1"/>
</svg>
