<svg width="19" height="19" viewBox="0 0 19 19" fill="none" xmlns="http://www.w3.org/2000/svg">
<path d="M7.66555 14.3311C3.72105 14.3311 0.5 11.0928 0.5 7.16555C0.5 3.23828 3.72105 0 7.66555 0C11.61 0 14.8311 3.22105 14.8311 7.16555C14.8311 8.64689 14.366 10.0249 13.5909 11.1617L18.0349 15.623C18.3105 15.9158 18.5 16.2775 18.5 16.6737C18.5 17.5349 17.9316 18.1378 17.1048 18.1378C16.6053 18.1378 16.2263 17.9828 15.8818 17.6211L11.4722 13.2287C10.3699 13.9177 9.06077 14.3311 7.66555 14.3311ZM7.66555 11.9885C10.301 11.9885 12.4713 9.80096 12.4713 7.16555C12.4713 4.51292 10.301 2.34258 7.66555 2.34258C5.03014 2.34258 2.84258 4.53014 2.84258 7.16555C2.84258 9.80096 5.03014 11.9885 7.66555 11.9885Z" fill="#AEB1B1"/>
</svg>
