<svg width="22" height="22" viewBox="0 0 22 22" fill="none" xmlns="http://www.w3.org/2000/svg">
<path d="M8.62714 19.4336L8.28204 16.6728C8.09511 16.6009 7.91897 16.5147 7.75361 16.414C7.58825 16.3134 7.42649 16.2055 7.26832 16.0905L4.70165 17.1689L2.3291 13.0709L4.55067 11.3885C4.53629 11.2879 4.5291 11.1908 4.5291 11.0973V10.515C4.5291 10.4215 4.53629 10.3245 4.55067 10.2238L2.3291 8.54146L4.70165 4.44342L7.26832 5.52185C7.42649 5.40682 7.59185 5.29897 7.7644 5.19832C7.93694 5.09767 8.10949 5.01139 8.28204 4.9395L8.62714 2.17871H13.3722L13.7173 4.9395C13.9043 5.01139 14.0804 5.09767 14.2458 5.19832C14.4111 5.29897 14.5729 5.40682 14.7311 5.52185L17.2977 4.44342L19.6703 8.54146L17.4487 10.2238C17.4631 10.3245 17.4703 10.4215 17.4703 10.515V11.0973C17.4703 11.1908 17.4559 11.2879 17.4271 11.3885L19.6487 13.0709L17.2762 17.1689L14.7311 16.0905C14.5729 16.2055 14.4075 16.3134 14.235 16.414C14.0624 16.5147 13.8899 16.6009 13.7173 16.6728L13.3722 19.4336H8.62714ZM11.0428 13.8258C11.8768 13.8258 12.5886 13.531 13.1781 12.9415C13.7677 12.3519 14.0624 11.6401 14.0624 10.8062C14.0624 9.97218 13.7677 9.26041 13.1781 8.67087C12.5886 8.08133 11.8768 7.78655 11.0428 7.78655C10.1945 7.78655 9.4791 8.08133 8.89675 8.67087C8.3144 9.26041 8.02322 9.97218 8.02322 10.8062C8.02322 11.6401 8.3144 12.3519 8.89675 12.9415C9.4791 13.531 10.1945 13.8258 11.0428 13.8258Z" fill="white"/>
</svg>
