<svg width="16" height="16" viewBox="0 0 16 16" fill="none" xmlns="http://www.w3.org/2000/svg">
<g opacity="0.6">
<path d="M9.33464 6.6013V5.46797C9.7013 5.31241 10.0763 5.19575 10.4596 5.11797C10.843 5.04019 11.2457 5.0013 11.668 5.0013C11.9569 5.0013 12.2402 5.02352 12.518 5.06797C12.7957 5.11241 13.068 5.16797 13.3346 5.23464V6.3013C13.068 6.2013 12.7985 6.1263 12.5263 6.0763C12.2541 6.0263 11.968 6.0013 11.668 6.0013C11.2457 6.0013 10.8402 6.05408 10.4513 6.15964C10.0624 6.26519 9.69019 6.41241 9.33464 6.6013ZM9.33464 10.268V9.13464C9.7013 8.97908 10.0763 8.86241 10.4596 8.78464C10.843 8.70686 11.2457 8.66797 11.668 8.66797C11.9569 8.66797 12.2402 8.69019 12.518 8.73464C12.7957 8.77908 13.068 8.83464 13.3346 8.9013V9.96797C13.068 9.86797 12.7985 9.79297 12.5263 9.74297C12.2541 9.69297 11.968 9.66797 11.668 9.66797C11.2457 9.66797 10.8402 9.71797 10.4513 9.81797C10.0624 9.91797 9.69019 10.068 9.33464 10.268ZM9.33464 8.43464V7.3013C9.7013 7.14575 10.0763 7.02908 10.4596 6.9513C10.843 6.87352 11.2457 6.83464 11.668 6.83464C11.9569 6.83464 12.2402 6.85686 12.518 6.9013C12.7957 6.94575 13.068 7.0013 13.3346 7.06797V8.13464C13.068 8.03464 12.7985 7.95964 12.5263 7.90964C12.2541 7.85964 11.968 7.83464 11.668 7.83464C11.2457 7.83464 10.8402 7.88741 10.4513 7.99297C10.0624 8.09852 9.69019 8.24575 9.33464 8.43464ZM4.33464 10.668C4.85686 10.668 5.36519 10.7263 5.85964 10.843C6.35408 10.9596 6.84575 11.1346 7.33464 11.368V4.8013C6.87908 4.53464 6.39575 4.33464 5.88464 4.2013C5.37352 4.06797 4.85686 4.0013 4.33464 4.0013C3.93464 4.0013 3.53741 4.04019 3.14297 4.11797C2.74852 4.19575 2.36797 4.31241 2.0013 4.46797V11.068C2.39019 10.9346 2.7763 10.8346 3.15964 10.768C3.54297 10.7013 3.93464 10.668 4.33464 10.668ZM8.66797 11.368C9.15686 11.1346 9.64853 10.9596 10.143 10.843C10.6374 10.7263 11.1457 10.668 11.668 10.668C12.068 10.668 12.4596 10.7013 12.843 10.768C13.2263 10.8346 13.6124 10.9346 14.0013 11.068V4.46797C13.6346 4.31241 13.2541 4.19575 12.8596 4.11797C12.4652 4.04019 12.068 4.0013 11.668 4.0013C11.1457 4.0013 10.6291 4.06797 10.118 4.2013C9.60686 4.33464 9.12352 4.53464 8.66797 4.8013V11.368ZM8.0013 13.3346C7.46797 12.9124 6.89019 12.5846 6.26797 12.3513C5.64575 12.118 5.0013 12.0013 4.33464 12.0013C3.86797 12.0013 3.40964 12.0624 2.95964 12.1846C2.50964 12.3069 2.07908 12.4791 1.66797 12.7013C1.43464 12.8235 1.20964 12.818 0.992969 12.6846C0.776302 12.5513 0.667969 12.3569 0.667969 12.1013V4.06797C0.667969 3.94575 0.698524 3.82908 0.759635 3.71797C0.820747 3.60686 0.912413 3.52352 1.03464 3.46797C1.54575 3.2013 2.07908 3.0013 2.63464 2.86797C3.19019 2.73464 3.75686 2.66797 4.33464 2.66797C4.97908 2.66797 5.60964 2.7513 6.2263 2.91797C6.84297 3.08464 7.43464 3.33464 8.0013 3.66797C8.56797 3.33464 9.15964 3.08464 9.7763 2.91797C10.393 2.7513 11.0235 2.66797 11.668 2.66797C12.2457 2.66797 12.8124 2.73464 13.368 2.86797C13.9235 3.0013 14.4569 3.2013 14.968 3.46797C15.0902 3.52352 15.1819 3.60686 15.243 3.71797C15.3041 3.82908 15.3346 3.94575 15.3346 4.06797V12.1013C15.3346 12.3569 15.2263 12.5513 15.0096 12.6846C14.793 12.818 14.568 12.8235 14.3346 12.7013C13.9235 12.4791 13.493 12.3069 13.043 12.1846C12.593 12.0624 12.1346 12.0013 11.668 12.0013C11.0013 12.0013 10.3569 12.118 9.73464 12.3513C9.11241 12.5846 8.53464 12.9124 8.0013 13.3346Z" fill="#595959"/>
</g>
</svg>
