<svg width="52" height="53" viewBox="0 0 52 53" fill="none" xmlns="http://www.w3.org/2000/svg">
    <rect y="0.581055" width="52" height="52" rx="26" fill="black"/>
    <path d="M42.7423 26.7308C42.7423 36.5935 34.747 44.5888 24.8844 44.5888C15.0217 44.5888 7.02638 36.5935 7.02638 26.7308C7.02638 16.8681 15.0217 8.87285 24.8844 8.87285C34.747 8.87285 42.7423 16.8681 42.7423 26.7308Z" fill="white"/>
    <path d="M23.8546 6.58692C16.7793 7.32527 10.4574 11.9833 7.58344 18.5751C5.73138 22.8307 5.42315 27.7307 6.73823 32.2416C8.36261 37.8663 12.5645 42.6183 18.0015 44.995C22.2571 46.8471 27.1571 47.1553 31.6683 45.8402C38.4203 43.8937 43.7367 38.3498 45.4819 31.4625C48.2066 20.6693 41.5214 9.6335 30.7012 7.05678C28.3245 6.49294 26.2313 6.345 23.8546 6.58692ZM24.1231 19.0584C25.8409 21.3406 27.2913 23.22 27.345 23.22C27.3987 23.22 29.1847 21.3406 31.2919 19.0584L35.1447 14.8968H37.3329L36.8631 15.394C36.5946 15.6748 34.8494 17.568 32.9834 19.5954C31.1173 21.6225 29.2916 23.5954 28.9286 23.9584L28.2847 24.643L33.319 31.3419C36.0844 35.0337 38.3532 38.0939 38.3532 38.1487C38.3532 38.2158 36.7025 38.2556 34.7012 38.2556L31.0368 38.2422L27.6269 33.6778C25.2776 30.523 24.1768 29.1663 24.0694 29.2477C23.9889 29.3148 22.082 31.3693 19.8272 33.812L15.7327 38.2556H14.6985C14.1218 38.2556 13.6519 38.2282 13.6519 38.1885C13.6519 38.1487 15.7864 35.8118 18.3903 33.0066C20.982 30.2008 23.13 27.8515 23.156 27.8118C23.17 27.757 21.0354 24.8444 18.4176 21.3406C15.7998 17.8502 13.6519 14.9639 13.6519 14.9365C13.6519 14.9104 15.3026 14.8968 17.3303 14.8968H21.0081L24.1231 19.0584Z" fill="black"/>
    <path d="M16.9683 16.6956C17.0218 16.7896 20.404 21.3271 24.4587 26.7501L31.8423 36.6309L33.493 36.6446C34.5135 36.6446 35.1313 36.5909 35.1039 36.5104C35.0916 36.4432 31.7217 31.9063 27.6409 26.4419L20.2026 16.5077H18.5385C17.1563 16.5077 16.8738 16.5351 16.9683 16.6956Z" fill="black"/>
</svg>
