<svg width="27" height="22" viewBox="0 0 27 22" fill="none" xmlns="http://www.w3.org/2000/svg">
<path d="M26.5 2.875C25.525 3.3625 24.55 3.525 23.4125 3.6875C24.55 3.0375 25.3625 2.0625 25.6875 0.7625C24.7125 1.4125 23.575 1.7375 22.275 2.0625C21.3 1.0875 19.8375 0.4375 18.375 0.4375C14.9625 0.4375 12.3625 3.6875 13.175 6.9375C8.7875 6.775 4.8875 4.6625 2.125 1.4125C0.6625 3.85 1.475 6.9375 3.75 8.5625C2.9375 8.5625 2.125 8.2375 1.3125 7.9125C1.3125 10.35 3.1 12.625 5.5375 13.275C4.725 13.4375 3.9125 13.6 3.1 13.4375C3.75 15.55 5.7 17.175 8.1375 17.175C6.1875 18.6375 3.2625 19.45 0.5 19.125C2.9375 20.5875 5.7 21.5625 8.625 21.5625C18.5375 21.5625 24.0625 13.275 23.7375 5.6375C24.875 4.9875 25.85 4.0125 26.5 2.875Z" fill="white"/>
</svg>
